M48
;DRILL file {KiCad (5.0.0)} date 12/23/18 21:05:13
;FORMAT={-:-/ absolute / inch / decimal}
FMAT,2
INCH,TZ
T1C0.0157
T2C0.0315
T3C0.0394
T4C0.0433
T5C0.0472
T6C0.1575
%
G90
G05
M72
T1
X4.4254Y-2.98
X4.475Y-2.98
X4.575Y-2.98
X4.69Y-2.98
X4.91Y-3.075
X4.92Y-3.575
X5.01Y-3.15
X5.0146Y-2.925
X5.0146Y-3.385
X5.015Y-2.97
X5.015Y-3.0827
X5.015Y-3.545
X5.015Y-3.4165
X5.03Y-2.875
X5.04Y-3.63
X5.0801Y-2.8646
X5.0801Y-3.6359
X5.09Y-2.9354
X5.09Y-3.565
X5.135Y-2.8646
X5.19Y-2.87
X5.2474Y-3.6354
X5.285Y-3.635
X5.295Y-2.8646
X5.345Y-3.9
X5.3508Y-2.865
X5.43Y-3.6354
X5.47Y-3.635
X5.485Y-4.
X5.505Y-3.825
X5.51Y-3.885
X5.5393Y-4.1302
X5.545Y-2.8646
X5.565Y-3.83
X5.585Y-2.87
X5.605Y-3.635
X5.6364Y-3.6378
X5.705Y-3.6354
X5.7146Y-2.94
X5.725Y-3.2
X5.75Y-3.535
X5.77Y-2.87
X5.785Y-3.09
X5.7854Y-2.9301
X5.7854Y-3.02
X5.7854Y-3.2
X5.7854Y-3.435
X5.7854Y-3.5699
X5.99Y-3.66
X6.09Y-3.73
X6.09Y-3.7615
X6.1453Y-3.73
X6.1502Y-3.7611
X6.315Y-3.68
X6.315Y-3.72
X6.315Y-3.875
X6.315Y-3.925
X6.325Y-3.02
X6.325Y-3.13
T2
X4.275Y-2.625
X4.325Y-2.45
X4.35Y-3.04
X4.48Y-3.895
X4.525Y-2.225
X4.525Y-3.175
X4.54Y-4.44
X4.58Y-3.895
X4.625Y-2.225
X4.625Y-2.575
X4.63Y-4.035
X4.675Y-3.845
X4.7166Y-2.3584
X4.74Y-3.175
X5.05Y-4.15
X5.085Y-3.84
X5.69Y-4.065
X5.7Y-3.55
X5.72Y-3.9
X5.75Y-3.77
X5.855Y-3.65
X5.98Y-4.12
X6.045Y-3.865
X6.06Y-4.43
X6.13Y-3.91
X6.13Y-3.99
X6.15Y-4.34
X6.25Y-4.34
X6.35Y-4.34
X6.425Y-3.6
X6.425Y-3.8
X6.425Y-3.9
X6.425Y-4.
T3
X4.65Y-4.45
X5.8Y-2.075
X5.8Y-4.45
X4.65Y-2.075
X5.15Y-2.35
X5.15Y-2.45
X5.25Y-2.35
X5.25Y-2.45
X5.35Y-2.35
X5.35Y-2.45
X5.45Y-2.35
X5.45Y-2.45
X5.55Y-2.35
X5.55Y-2.45
X5.65Y-2.35
X5.65Y-2.45
X5.75Y-2.35
X5.75Y-2.45
X5.85Y-2.35
X5.85Y-2.45
X5.95Y-2.35
X5.95Y-2.45
X6.05Y-2.35
X6.05Y-2.45
X5.415Y-4.2
X5.415Y-4.3
X5.515Y-4.2
X5.515Y-4.3
X5.615Y-4.2
X5.615Y-4.3
X5.715Y-4.2
X5.715Y-4.3
X5.815Y-4.2
X5.815Y-4.3
X6.4Y-3.225
X6.4Y-3.325
X4.15Y-3.74
X4.15Y-3.84
X4.15Y-3.94
X4.15Y-4.04
X4.95Y-3.74
X4.95Y-3.84
X4.95Y-3.94
X4.95Y-4.04
X4.15Y-2.5
X4.15Y-2.6
X4.15Y-2.7
X4.15Y-2.8
X4.95Y-2.5
X4.95Y-2.6
X4.95Y-2.7
X4.95Y-2.8
T4
X6.1222Y-2.75
X6.3978Y-2.75
T6
X5.4Y-3.25
T3
X5.9963Y-2.7657G85X5.9963Y-2.7343
G05
X6.0396Y-2.6398G85X6.0081Y-2.6398
G05
X6.0396Y-2.8602G85X6.0081Y-2.8602
G05
T5
X6.3506Y-2.6358G85X6.327Y-2.6358
G05
X6.3506Y-2.8642G85X6.327Y-2.8642
G05
T0
M30
