G04 #@! TF.GenerationSoftware,KiCad,Pcbnew,(5.0.0)*
G04 #@! TF.CreationDate,2020-01-20T20:48:10+01:00*
G04 #@! TF.ProjectId,rfreplacement,72667265706C6163656D656E742E6B69,Rev. 3 VGP*
G04 #@! TF.SameCoordinates,Original*
G04 #@! TF.FileFunction,Legend,Top*
G04 #@! TF.FilePolarity,Positive*
%FSLAX46Y46*%
G04 Gerber Fmt 4.6, Leading zero omitted, Abs format (unit mm)*
G04 Created by KiCad (PCBNEW (5.0.0)) date 01/20/20 20:48:10*
%MOMM*%
%LPD*%
G01*
G04 APERTURE LIST*
%ADD10C,0.300000*%
%ADD11C,0.250000*%
%ADD12C,0.200000*%
%ADD13C,0.120000*%
%ADD14C,0.150000*%
G04 APERTURE END LIST*
D10*
X163180142Y-52670000D02*
X163108714Y-52884285D01*
X163037285Y-52955714D01*
X162894428Y-53027142D01*
X162680142Y-53027142D01*
X162537285Y-52955714D01*
X162465857Y-52884285D01*
X162394428Y-52741428D01*
X162394428Y-52170000D01*
X163894428Y-52170000D01*
X163894428Y-52670000D01*
X163823000Y-52812857D01*
X163751571Y-52884285D01*
X163608714Y-52955714D01*
X163465857Y-52955714D01*
X163323000Y-52884285D01*
X163251571Y-52812857D01*
X163180142Y-52670000D01*
X163180142Y-52170000D01*
X162465857Y-54241428D02*
X162394428Y-54098571D01*
X162394428Y-53812857D01*
X162465857Y-53670000D01*
X162608714Y-53598571D01*
X163180142Y-53598571D01*
X163323000Y-53670000D01*
X163394428Y-53812857D01*
X163394428Y-54098571D01*
X163323000Y-54241428D01*
X163180142Y-54312857D01*
X163037285Y-54312857D01*
X162894428Y-53598571D01*
X163394428Y-54741428D02*
X163394428Y-55312857D01*
X163894428Y-54955714D02*
X162608714Y-54955714D01*
X162465857Y-55027142D01*
X162394428Y-55170000D01*
X162394428Y-55312857D01*
X162394428Y-56455714D02*
X163180142Y-56455714D01*
X163323000Y-56384285D01*
X163394428Y-56241428D01*
X163394428Y-55955714D01*
X163323000Y-55812857D01*
X162465857Y-56455714D02*
X162394428Y-56312857D01*
X162394428Y-55955714D01*
X162465857Y-55812857D01*
X162608714Y-55741428D01*
X162751571Y-55741428D01*
X162894428Y-55812857D01*
X162965857Y-55955714D01*
X162965857Y-56312857D01*
X163037285Y-56455714D01*
X163823000Y-57955714D02*
X163894428Y-57812857D01*
X163894428Y-57598571D01*
X163823000Y-57384285D01*
X163680142Y-57241428D01*
X163537285Y-57170000D01*
X163251571Y-57098571D01*
X163037285Y-57098571D01*
X162751571Y-57170000D01*
X162608714Y-57241428D01*
X162465857Y-57384285D01*
X162394428Y-57598571D01*
X162394428Y-57741428D01*
X162465857Y-57955714D01*
X162537285Y-58027142D01*
X163037285Y-58027142D01*
X163037285Y-57741428D01*
X162394428Y-59312857D02*
X163180142Y-59312857D01*
X163323000Y-59241428D01*
X163394428Y-59098571D01*
X163394428Y-58812857D01*
X163323000Y-58670000D01*
X162465857Y-59312857D02*
X162394428Y-59170000D01*
X162394428Y-58812857D01*
X162465857Y-58670000D01*
X162608714Y-58598571D01*
X162751571Y-58598571D01*
X162894428Y-58670000D01*
X162965857Y-58812857D01*
X162965857Y-59170000D01*
X163037285Y-59312857D01*
X162394428Y-60027142D02*
X163394428Y-60027142D01*
X163251571Y-60027142D02*
X163323000Y-60098571D01*
X163394428Y-60241428D01*
X163394428Y-60455714D01*
X163323000Y-60598571D01*
X163180142Y-60670000D01*
X162394428Y-60670000D01*
X163180142Y-60670000D02*
X163323000Y-60741428D01*
X163394428Y-60884285D01*
X163394428Y-61098571D01*
X163323000Y-61241428D01*
X163180142Y-61312857D01*
X162394428Y-61312857D01*
X162394428Y-62027142D02*
X163394428Y-62027142D01*
X163251571Y-62027142D02*
X163323000Y-62098571D01*
X163394428Y-62241428D01*
X163394428Y-62455714D01*
X163323000Y-62598571D01*
X163180142Y-62670000D01*
X162394428Y-62670000D01*
X163180142Y-62670000D02*
X163323000Y-62741428D01*
X163394428Y-62884285D01*
X163394428Y-63098571D01*
X163323000Y-63241428D01*
X163180142Y-63312857D01*
X162394428Y-63312857D01*
X162394428Y-64670000D02*
X163180142Y-64670000D01*
X163323000Y-64598571D01*
X163394428Y-64455714D01*
X163394428Y-64170000D01*
X163323000Y-64027142D01*
X162465857Y-64670000D02*
X162394428Y-64527142D01*
X162394428Y-64170000D01*
X162465857Y-64027142D01*
X162608714Y-63955714D01*
X162751571Y-63955714D01*
X162894428Y-64027142D01*
X162965857Y-64170000D01*
X162965857Y-64527142D01*
X163037285Y-64670000D01*
X159987285Y-53705714D02*
X159915857Y-53634285D01*
X159844428Y-53420000D01*
X159844428Y-53277142D01*
X159915857Y-53062857D01*
X160058714Y-52920000D01*
X160201571Y-52848571D01*
X160487285Y-52777142D01*
X160701571Y-52777142D01*
X160987285Y-52848571D01*
X161130142Y-52920000D01*
X161273000Y-53062857D01*
X161344428Y-53277142D01*
X161344428Y-53420000D01*
X161273000Y-53634285D01*
X161201571Y-53705714D01*
X159844428Y-54562857D02*
X159915857Y-54420000D01*
X159987285Y-54348571D01*
X160130142Y-54277142D01*
X160558714Y-54277142D01*
X160701571Y-54348571D01*
X160773000Y-54420000D01*
X160844428Y-54562857D01*
X160844428Y-54777142D01*
X160773000Y-54920000D01*
X160701571Y-54991428D01*
X160558714Y-55062857D01*
X160130142Y-55062857D01*
X159987285Y-54991428D01*
X159915857Y-54920000D01*
X159844428Y-54777142D01*
X159844428Y-54562857D01*
X159844428Y-55705714D02*
X160844428Y-55705714D01*
X160701571Y-55705714D02*
X160773000Y-55777142D01*
X160844428Y-55920000D01*
X160844428Y-56134285D01*
X160773000Y-56277142D01*
X160630142Y-56348571D01*
X159844428Y-56348571D01*
X160630142Y-56348571D02*
X160773000Y-56420000D01*
X160844428Y-56562857D01*
X160844428Y-56777142D01*
X160773000Y-56920000D01*
X160630142Y-56991428D01*
X159844428Y-56991428D01*
X160844428Y-57705714D02*
X159344428Y-57705714D01*
X160773000Y-57705714D02*
X160844428Y-57848571D01*
X160844428Y-58134285D01*
X160773000Y-58277142D01*
X160701571Y-58348571D01*
X160558714Y-58420000D01*
X160130142Y-58420000D01*
X159987285Y-58348571D01*
X159915857Y-58277142D01*
X159844428Y-58134285D01*
X159844428Y-57848571D01*
X159915857Y-57705714D01*
X160844428Y-59705714D02*
X159844428Y-59705714D01*
X160844428Y-59062857D02*
X160058714Y-59062857D01*
X159915857Y-59134285D01*
X159844428Y-59277142D01*
X159844428Y-59491428D01*
X159915857Y-59634285D01*
X159987285Y-59705714D01*
X160844428Y-60205714D02*
X160844428Y-60777142D01*
X161344428Y-60420000D02*
X160058714Y-60420000D01*
X159915857Y-60491428D01*
X159844428Y-60634285D01*
X159844428Y-60777142D01*
X159844428Y-61277142D02*
X160844428Y-61277142D01*
X161344428Y-61277142D02*
X161273000Y-61205714D01*
X161201571Y-61277142D01*
X161273000Y-61348571D01*
X161344428Y-61277142D01*
X161201571Y-61277142D01*
X160844428Y-61991428D02*
X159844428Y-61991428D01*
X160701571Y-61991428D02*
X160773000Y-62062857D01*
X160844428Y-62205714D01*
X160844428Y-62420000D01*
X160773000Y-62562857D01*
X160630142Y-62634285D01*
X159844428Y-62634285D01*
X160844428Y-63991428D02*
X159630142Y-63991428D01*
X159487285Y-63920000D01*
X159415857Y-63848571D01*
X159344428Y-63705714D01*
X159344428Y-63491428D01*
X159415857Y-63348571D01*
X159915857Y-63991428D02*
X159844428Y-63848571D01*
X159844428Y-63562857D01*
X159915857Y-63420000D01*
X159987285Y-63348571D01*
X160130142Y-63277142D01*
X160558714Y-63277142D01*
X160701571Y-63348571D01*
X160773000Y-63420000D01*
X160844428Y-63562857D01*
X160844428Y-63848571D01*
X160773000Y-63991428D01*
X106993428Y-75748285D02*
X105493428Y-76248285D01*
X106993428Y-76748285D01*
X106922000Y-78034000D02*
X106993428Y-77891142D01*
X106993428Y-77676857D01*
X106922000Y-77462571D01*
X106779142Y-77319714D01*
X106636285Y-77248285D01*
X106350571Y-77176857D01*
X106136285Y-77176857D01*
X105850571Y-77248285D01*
X105707714Y-77319714D01*
X105564857Y-77462571D01*
X105493428Y-77676857D01*
X105493428Y-77819714D01*
X105564857Y-78034000D01*
X105636285Y-78105428D01*
X106136285Y-78105428D01*
X106136285Y-77819714D01*
X105493428Y-78748285D02*
X106993428Y-78748285D01*
X106993428Y-79319714D01*
X106922000Y-79462571D01*
X106850571Y-79534000D01*
X106707714Y-79605428D01*
X106493428Y-79605428D01*
X106350571Y-79534000D01*
X106279142Y-79462571D01*
X106207714Y-79319714D01*
X106207714Y-78748285D01*
X105493428Y-81391142D02*
X106993428Y-81391142D01*
X105922000Y-81891142D01*
X106993428Y-82391142D01*
X105493428Y-82391142D01*
X105564857Y-83676857D02*
X105493428Y-83534000D01*
X105493428Y-83248285D01*
X105564857Y-83105428D01*
X105707714Y-83034000D01*
X106279142Y-83034000D01*
X106422000Y-83105428D01*
X106493428Y-83248285D01*
X106493428Y-83534000D01*
X106422000Y-83676857D01*
X106279142Y-83748285D01*
X106136285Y-83748285D01*
X105993428Y-83034000D01*
X105493428Y-85034000D02*
X106993428Y-85034000D01*
X105564857Y-85034000D02*
X105493428Y-84891142D01*
X105493428Y-84605428D01*
X105564857Y-84462571D01*
X105636285Y-84391142D01*
X105779142Y-84319714D01*
X106207714Y-84319714D01*
X106350571Y-84391142D01*
X106422000Y-84462571D01*
X106493428Y-84605428D01*
X106493428Y-84891142D01*
X106422000Y-85034000D01*
X105493428Y-85748285D02*
X106493428Y-85748285D01*
X106993428Y-85748285D02*
X106922000Y-85676857D01*
X106850571Y-85748285D01*
X106922000Y-85819714D01*
X106993428Y-85748285D01*
X106850571Y-85748285D01*
X105493428Y-87105428D02*
X106279142Y-87105428D01*
X106422000Y-87034000D01*
X106493428Y-86891142D01*
X106493428Y-86605428D01*
X106422000Y-86462571D01*
X105564857Y-87105428D02*
X105493428Y-86962571D01*
X105493428Y-86605428D01*
X105564857Y-86462571D01*
X105707714Y-86391142D01*
X105850571Y-86391142D01*
X105993428Y-86462571D01*
X106064857Y-86605428D01*
X106064857Y-86962571D01*
X106136285Y-87105428D01*
X105493428Y-53550571D02*
X106207714Y-53050571D01*
X105493428Y-52693428D02*
X106993428Y-52693428D01*
X106993428Y-53264857D01*
X106922000Y-53407714D01*
X106850571Y-53479142D01*
X106707714Y-53550571D01*
X106493428Y-53550571D01*
X106350571Y-53479142D01*
X106279142Y-53407714D01*
X106207714Y-53264857D01*
X106207714Y-52693428D01*
X106993428Y-54479142D02*
X106993428Y-54764857D01*
X106922000Y-54907714D01*
X106779142Y-55050571D01*
X106493428Y-55122000D01*
X105993428Y-55122000D01*
X105707714Y-55050571D01*
X105564857Y-54907714D01*
X105493428Y-54764857D01*
X105493428Y-54479142D01*
X105564857Y-54336285D01*
X105707714Y-54193428D01*
X105993428Y-54122000D01*
X106493428Y-54122000D01*
X106779142Y-54193428D01*
X106922000Y-54336285D01*
X106993428Y-54479142D01*
X105493428Y-55764857D02*
X106993428Y-55764857D01*
X106279142Y-55764857D02*
X106279142Y-56622000D01*
X105493428Y-56622000D02*
X106993428Y-56622000D01*
X105564857Y-57264857D02*
X105493428Y-57479142D01*
X105493428Y-57836285D01*
X105564857Y-57979142D01*
X105636285Y-58050571D01*
X105779142Y-58122000D01*
X105922000Y-58122000D01*
X106064857Y-58050571D01*
X106136285Y-57979142D01*
X106207714Y-57836285D01*
X106279142Y-57550571D01*
X106350571Y-57407714D01*
X106422000Y-57336285D01*
X106564857Y-57264857D01*
X106707714Y-57264857D01*
X106850571Y-57336285D01*
X106922000Y-57407714D01*
X106993428Y-57550571D01*
X106993428Y-57907714D01*
X106922000Y-58122000D01*
D11*
X106847285Y-91684142D02*
X106799666Y-91731761D01*
X106656809Y-91779380D01*
X106561571Y-91779380D01*
X106418714Y-91731761D01*
X106323476Y-91636523D01*
X106275857Y-91541285D01*
X106228238Y-91350809D01*
X106228238Y-91207952D01*
X106275857Y-91017476D01*
X106323476Y-90922238D01*
X106418714Y-90827000D01*
X106561571Y-90779380D01*
X106656809Y-90779380D01*
X106799666Y-90827000D01*
X106847285Y-90874619D01*
X107418714Y-91779380D02*
X107323476Y-91731761D01*
X107275857Y-91636523D01*
X107275857Y-90779380D01*
X107942523Y-91779380D02*
X107847285Y-91731761D01*
X107799666Y-91684142D01*
X107752047Y-91588904D01*
X107752047Y-91303190D01*
X107799666Y-91207952D01*
X107847285Y-91160333D01*
X107942523Y-91112714D01*
X108085380Y-91112714D01*
X108180619Y-91160333D01*
X108228238Y-91207952D01*
X108275857Y-91303190D01*
X108275857Y-91588904D01*
X108228238Y-91684142D01*
X108180619Y-91731761D01*
X108085380Y-91779380D01*
X107942523Y-91779380D01*
X108656809Y-91731761D02*
X108752047Y-91779380D01*
X108942523Y-91779380D01*
X109037761Y-91731761D01*
X109085380Y-91636523D01*
X109085380Y-91588904D01*
X109037761Y-91493666D01*
X108942523Y-91446047D01*
X108799666Y-91446047D01*
X108704428Y-91398428D01*
X108656809Y-91303190D01*
X108656809Y-91255571D01*
X108704428Y-91160333D01*
X108799666Y-91112714D01*
X108942523Y-91112714D01*
X109037761Y-91160333D01*
X109894904Y-91731761D02*
X109799666Y-91779380D01*
X109609190Y-91779380D01*
X109513952Y-91731761D01*
X109466333Y-91636523D01*
X109466333Y-91255571D01*
X109513952Y-91160333D01*
X109609190Y-91112714D01*
X109799666Y-91112714D01*
X109894904Y-91160333D01*
X109942523Y-91255571D01*
X109942523Y-91350809D01*
X109466333Y-91446047D01*
X110371095Y-91684142D02*
X110418714Y-91731761D01*
X110371095Y-91779380D01*
X110323476Y-91731761D01*
X110371095Y-91684142D01*
X110371095Y-91779380D01*
X110371095Y-91160333D02*
X110418714Y-91207952D01*
X110371095Y-91255571D01*
X110323476Y-91207952D01*
X110371095Y-91160333D01*
X110371095Y-91255571D01*
X112133000Y-91779380D02*
X111561571Y-91779380D01*
X111847285Y-91779380D02*
X111847285Y-90779380D01*
X111752047Y-90922238D01*
X111656809Y-91017476D01*
X111561571Y-91065095D01*
X112513952Y-90874619D02*
X112561571Y-90827000D01*
X112656809Y-90779380D01*
X112894904Y-90779380D01*
X112990142Y-90827000D01*
X113037761Y-90874619D01*
X113085380Y-90969857D01*
X113085380Y-91065095D01*
X113037761Y-91207952D01*
X112466333Y-91779380D01*
X113085380Y-91779380D01*
X113371095Y-90779380D02*
X113704428Y-91779380D01*
X114037761Y-90779380D01*
X114990142Y-90779380D02*
X115323476Y-91779380D01*
X115656809Y-90779380D01*
X115990142Y-91779380D02*
X115990142Y-90779380D01*
X117037761Y-91684142D02*
X116990142Y-91731761D01*
X116847285Y-91779380D01*
X116752047Y-91779380D01*
X116609190Y-91731761D01*
X116513952Y-91636523D01*
X116466333Y-91541285D01*
X116418714Y-91350809D01*
X116418714Y-91207952D01*
X116466333Y-91017476D01*
X116513952Y-90922238D01*
X116609190Y-90827000D01*
X116752047Y-90779380D01*
X116847285Y-90779380D01*
X116990142Y-90827000D01*
X117037761Y-90874619D01*
X107894904Y-92529380D02*
X108085380Y-92529380D01*
X108180619Y-92577000D01*
X108275857Y-92672238D01*
X108323476Y-92862714D01*
X108323476Y-93196047D01*
X108275857Y-93386523D01*
X108180619Y-93481761D01*
X108085380Y-93529380D01*
X107894904Y-93529380D01*
X107799666Y-93481761D01*
X107704428Y-93386523D01*
X107656809Y-93196047D01*
X107656809Y-92862714D01*
X107704428Y-92672238D01*
X107799666Y-92577000D01*
X107894904Y-92529380D01*
X108752047Y-92862714D02*
X108752047Y-93862714D01*
X108752047Y-92910333D02*
X108847285Y-92862714D01*
X109037761Y-92862714D01*
X109133000Y-92910333D01*
X109180619Y-92957952D01*
X109228238Y-93053190D01*
X109228238Y-93338904D01*
X109180619Y-93434142D01*
X109133000Y-93481761D01*
X109037761Y-93529380D01*
X108847285Y-93529380D01*
X108752047Y-93481761D01*
X110037761Y-93481761D02*
X109942523Y-93529380D01*
X109752047Y-93529380D01*
X109656809Y-93481761D01*
X109609190Y-93386523D01*
X109609190Y-93005571D01*
X109656809Y-92910333D01*
X109752047Y-92862714D01*
X109942523Y-92862714D01*
X110037761Y-92910333D01*
X110085380Y-93005571D01*
X110085380Y-93100809D01*
X109609190Y-93196047D01*
X110513952Y-92862714D02*
X110513952Y-93529380D01*
X110513952Y-92957952D02*
X110561571Y-92910333D01*
X110656809Y-92862714D01*
X110799666Y-92862714D01*
X110894904Y-92910333D01*
X110942523Y-93005571D01*
X110942523Y-93529380D01*
X111418714Y-93434142D02*
X111466333Y-93481761D01*
X111418714Y-93529380D01*
X111371095Y-93481761D01*
X111418714Y-93434142D01*
X111418714Y-93529380D01*
X111418714Y-92910333D02*
X111466333Y-92957952D01*
X111418714Y-93005571D01*
X111371095Y-92957952D01*
X111418714Y-92910333D01*
X111418714Y-93005571D01*
X113133000Y-92529380D02*
X112656809Y-92529380D01*
X112609190Y-93005571D01*
X112656809Y-92957952D01*
X112752047Y-92910333D01*
X112990142Y-92910333D01*
X113085380Y-92957952D01*
X113133000Y-93005571D01*
X113180619Y-93100809D01*
X113180619Y-93338904D01*
X113133000Y-93434142D01*
X113085380Y-93481761D01*
X112990142Y-93529380D01*
X112752047Y-93529380D01*
X112656809Y-93481761D01*
X112609190Y-93434142D01*
X113466333Y-92529380D02*
X113799666Y-93529380D01*
X114133000Y-92529380D01*
X115085380Y-92529380D02*
X115418714Y-93529380D01*
X115752047Y-92529380D01*
X116085380Y-93529380D02*
X116085380Y-92529380D01*
X117133000Y-93434142D02*
X117085380Y-93481761D01*
X116942523Y-93529380D01*
X116847285Y-93529380D01*
X116704428Y-93481761D01*
X116609190Y-93386523D01*
X116561571Y-93291285D01*
X116513952Y-93100809D01*
X116513952Y-92957952D01*
X116561571Y-92767476D01*
X116609190Y-92672238D01*
X116704428Y-92577000D01*
X116847285Y-92529380D01*
X116942523Y-92529380D01*
X117085380Y-92577000D01*
X117133000Y-92624619D01*
D10*
X136144142Y-68520571D02*
X136144142Y-69734857D01*
X136215571Y-69877714D01*
X136287000Y-69949142D01*
X136429857Y-70020571D01*
X136715571Y-70020571D01*
X136858428Y-69949142D01*
X136929857Y-69877714D01*
X137001285Y-69734857D01*
X137001285Y-68520571D01*
X137644142Y-68663428D02*
X137715571Y-68592000D01*
X137858428Y-68520571D01*
X138215571Y-68520571D01*
X138358428Y-68592000D01*
X138429857Y-68663428D01*
X138501285Y-68806285D01*
X138501285Y-68949142D01*
X138429857Y-69163428D01*
X137572714Y-70020571D01*
X138501285Y-70020571D01*
D12*
X144780000Y-57404000D02*
X144780000Y-58420000D01*
X139700000Y-57404000D02*
X144780000Y-57404000D01*
X139700000Y-58420000D02*
X139700000Y-57404000D01*
X145161000Y-111252000D02*
X145161000Y-110617000D01*
X140081000Y-111252000D02*
X145161000Y-111252000D01*
X140081000Y-110617000D02*
X140081000Y-111252000D01*
D13*
G04 #@! TO.C,R32*
X114225000Y-77843748D02*
X114225000Y-78366252D01*
X115645000Y-77843748D02*
X115645000Y-78366252D01*
G04 #@! TO.C,R36*
X117908000Y-84193748D02*
X117908000Y-84716252D01*
X119328000Y-84193748D02*
X119328000Y-84716252D01*
G04 #@! TO.C,C2*
X152646748Y-110415000D02*
X153169252Y-110415000D01*
X152646748Y-111835000D02*
X153169252Y-111835000D01*
G04 #@! TO.C,R33*
X113105000Y-58793748D02*
X113105000Y-59316252D01*
X111685000Y-58793748D02*
X111685000Y-59316252D01*
G04 #@! TO.C,C30*
X125170000Y-109203748D02*
X125170000Y-109726252D01*
X123750000Y-109203748D02*
X123750000Y-109726252D01*
G04 #@! TO.C,R37*
X115772000Y-84193748D02*
X115772000Y-84716252D01*
X114352000Y-84193748D02*
X114352000Y-84716252D01*
G04 #@! TO.C,R34*
X115645000Y-59316252D02*
X115645000Y-58793748D01*
X114225000Y-59316252D02*
X114225000Y-58793748D01*
G04 #@! TO.C,R35*
X118185000Y-58793748D02*
X118185000Y-59316252D01*
X116765000Y-58793748D02*
X116765000Y-59316252D01*
G04 #@! TO.C,C10*
X114425000Y-72853733D02*
X114425000Y-73196267D01*
X115445000Y-72853733D02*
X115445000Y-73196267D01*
G04 #@! TO.C,C4*
X147581252Y-96318000D02*
X147058748Y-96318000D01*
X147581252Y-97738000D02*
X147058748Y-97738000D01*
G04 #@! TO.C,C3*
X151376748Y-96318000D02*
X151899252Y-96318000D01*
X151376748Y-97738000D02*
X151899252Y-97738000D01*
G04 #@! TO.C,C1*
X116130000Y-107966252D02*
X116130000Y-107443748D01*
X117550000Y-107966252D02*
X117550000Y-107443748D01*
G04 #@! TO.C,AMP1*
X160210000Y-102430000D02*
X160210000Y-98230000D01*
X154750000Y-102430000D02*
X154750000Y-98230000D01*
X154920000Y-102430000D02*
X154750000Y-102430000D01*
X154910000Y-98230000D02*
X154740000Y-98230000D01*
X160210000Y-102430000D02*
X160040000Y-102430000D01*
X160210000Y-98230000D02*
X160040000Y-98230000D01*
X160040000Y-98230000D02*
X160040000Y-97040000D01*
G04 #@! TO.C,C5*
X153160252Y-105462000D02*
X152637748Y-105462000D01*
X153160252Y-106882000D02*
X152637748Y-106882000D01*
G04 #@! TO.C,AMP2*
X113010000Y-68775000D02*
X113010000Y-69965000D01*
X112840000Y-68775000D02*
X113010000Y-68775000D01*
X112840000Y-64575000D02*
X113010000Y-64575000D01*
X118140000Y-68775000D02*
X118310000Y-68775000D01*
X118130000Y-64575000D02*
X118300000Y-64575000D01*
X118300000Y-64575000D02*
X118300000Y-68775000D01*
X112840000Y-64575000D02*
X112840000Y-68775000D01*
G04 #@! TO.C,C9*
X120852000Y-77970748D02*
X120852000Y-78493252D01*
X119432000Y-77970748D02*
X119432000Y-78493252D01*
G04 #@! TO.C,GPIO1*
X129480000Y-58360000D02*
X129480000Y-63560000D01*
X152400000Y-58360000D02*
X129480000Y-58360000D01*
X155000000Y-63560000D02*
X129480000Y-63560000D01*
X152400000Y-58360000D02*
X152400000Y-60960000D01*
X152400000Y-60960000D02*
X155000000Y-60960000D01*
X155000000Y-60960000D02*
X155000000Y-63560000D01*
X153670000Y-58360000D02*
X155000000Y-58360000D01*
X155000000Y-58360000D02*
X155000000Y-59690000D01*
G04 #@! TO.C,C29*
X116330000Y-73196267D02*
X116330000Y-72853733D01*
X117350000Y-73196267D02*
X117350000Y-72853733D01*
G04 #@! TO.C,R19*
X161790748Y-75894000D02*
X162313252Y-75894000D01*
X161790748Y-74474000D02*
X162313252Y-74474000D01*
G04 #@! TO.C,R25*
X123773000Y-83558748D02*
X123773000Y-84081252D01*
X122353000Y-83558748D02*
X122353000Y-84081252D01*
G04 #@! TO.C,R28*
X159460000Y-107957252D02*
X159460000Y-107434748D01*
X158040000Y-107957252D02*
X158040000Y-107434748D01*
G04 #@! TO.C,R20*
X139521000Y-101719748D02*
X139521000Y-102242252D01*
X138101000Y-101719748D02*
X138101000Y-102242252D01*
G04 #@! TO.C,R21*
X138101000Y-97147748D02*
X138101000Y-97670252D01*
X139521000Y-97147748D02*
X139521000Y-97670252D01*
G04 #@! TO.C,R14*
X153163748Y-77926000D02*
X153686252Y-77926000D01*
X153163748Y-76506000D02*
X153686252Y-76506000D01*
G04 #@! TO.C,R27*
X160580000Y-107966252D02*
X160580000Y-107443748D01*
X162000000Y-107966252D02*
X162000000Y-107443748D01*
G04 #@! TO.C,R30*
X111200000Y-72896252D02*
X111200000Y-72373748D01*
X109780000Y-72896252D02*
X109780000Y-72373748D01*
G04 #@! TO.C,R17*
X154702252Y-93928000D02*
X154179748Y-93928000D01*
X154702252Y-92508000D02*
X154179748Y-92508000D01*
G04 #@! TO.C,R26*
X122353000Y-77970748D02*
X122353000Y-78493252D01*
X123773000Y-77970748D02*
X123773000Y-78493252D01*
G04 #@! TO.C,R31*
X120725000Y-72128748D02*
X120725000Y-72651252D01*
X119305000Y-72128748D02*
X119305000Y-72651252D01*
G04 #@! TO.C,R29*
X155500000Y-107957252D02*
X155500000Y-107434748D01*
X156920000Y-107957252D02*
X156920000Y-107434748D01*
G04 #@! TO.C,R22*
X135815000Y-101728748D02*
X135815000Y-102251252D01*
X137235000Y-101728748D02*
X137235000Y-102251252D01*
G04 #@! TO.C,R24*
X122353000Y-88145252D02*
X122353000Y-87622748D01*
X123773000Y-88145252D02*
X123773000Y-87622748D01*
G04 #@! TO.C,R18*
X161790748Y-77268000D02*
X162313252Y-77268000D01*
X161790748Y-78688000D02*
X162313252Y-78688000D01*
G04 #@! TO.C,R16*
X153163748Y-75640000D02*
X153686252Y-75640000D01*
X153163748Y-74220000D02*
X153686252Y-74220000D01*
G04 #@! TO.C,R15*
X157472748Y-74220000D02*
X157995252Y-74220000D01*
X157472748Y-75640000D02*
X157995252Y-75640000D01*
G04 #@! TO.C,R23*
X135815000Y-97661252D02*
X135815000Y-97138748D01*
X137235000Y-97661252D02*
X137235000Y-97138748D01*
G04 #@! TO.C,R7*
X157463748Y-84784000D02*
X157986252Y-84784000D01*
X157463748Y-83364000D02*
X157986252Y-83364000D01*
G04 #@! TO.C,R10*
X153163748Y-81078000D02*
X153686252Y-81078000D01*
X153163748Y-82498000D02*
X153686252Y-82498000D01*
G04 #@! TO.C,R6*
X153154748Y-87070000D02*
X153677252Y-87070000D01*
X153154748Y-85650000D02*
X153677252Y-85650000D01*
G04 #@! TO.C,R5*
X157463748Y-85650000D02*
X157986252Y-85650000D01*
X157463748Y-87070000D02*
X157986252Y-87070000D01*
G04 #@! TO.C,R13*
X157472748Y-76506000D02*
X157995252Y-76506000D01*
X157472748Y-77926000D02*
X157995252Y-77926000D01*
G04 #@! TO.C,RFCON1*
X106740000Y-72450000D02*
X105410000Y-72450000D01*
X106740000Y-71120000D02*
X106740000Y-72450000D01*
X106740000Y-69850000D02*
X104080000Y-69850000D01*
X104080000Y-69850000D02*
X104080000Y-62170000D01*
X106740000Y-69850000D02*
X106740000Y-62170000D01*
X106740000Y-62170000D02*
X104080000Y-62170000D01*
G04 #@! TO.C,R1*
X157463748Y-91642000D02*
X157986252Y-91642000D01*
X157463748Y-90222000D02*
X157986252Y-90222000D01*
G04 #@! TO.C,R3*
X157472748Y-87936000D02*
X157995252Y-87936000D01*
X157472748Y-89356000D02*
X157995252Y-89356000D01*
G04 #@! TO.C,R8*
X153163748Y-83364000D02*
X153686252Y-83364000D01*
X153163748Y-84784000D02*
X153686252Y-84784000D01*
G04 #@! TO.C,R11*
X157463748Y-78792000D02*
X157986252Y-78792000D01*
X157463748Y-80212000D02*
X157986252Y-80212000D01*
G04 #@! TO.C,R12*
X153163748Y-80212000D02*
X153686252Y-80212000D01*
X153163748Y-78792000D02*
X153686252Y-78792000D01*
G04 #@! TO.C,RFCON2*
X106740000Y-93666000D02*
X104080000Y-93666000D01*
X106740000Y-101346000D02*
X106740000Y-93666000D01*
X104080000Y-101346000D02*
X104080000Y-93666000D01*
X106740000Y-101346000D02*
X104080000Y-101346000D01*
X106740000Y-102616000D02*
X106740000Y-103946000D01*
X106740000Y-103946000D02*
X105410000Y-103946000D01*
G04 #@! TO.C,R2*
X153154748Y-91642000D02*
X153677252Y-91642000D01*
X153154748Y-90222000D02*
X153677252Y-90222000D01*
G04 #@! TO.C,R4*
X153163748Y-89356000D02*
X153686252Y-89356000D01*
X153163748Y-87936000D02*
X153686252Y-87936000D01*
G04 #@! TO.C,R9*
X157472748Y-82498000D02*
X157995252Y-82498000D01*
X157472748Y-81078000D02*
X157995252Y-81078000D01*
G04 #@! TO.C,JTAG1*
X136211000Y-110550000D02*
X136211000Y-109220000D01*
X137541000Y-110550000D02*
X136211000Y-110550000D01*
X136211000Y-107950000D02*
X136211000Y-105350000D01*
X138811000Y-107950000D02*
X136211000Y-107950000D01*
X138811000Y-110550000D02*
X138811000Y-107950000D01*
X136211000Y-105350000D02*
X149031000Y-105350000D01*
X138811000Y-110550000D02*
X149031000Y-110550000D01*
X149031000Y-110550000D02*
X149031000Y-105350000D01*
G04 #@! TO.C,L1*
X148388000Y-100830748D02*
X148388000Y-101353252D01*
X149808000Y-100830748D02*
X149808000Y-101353252D01*
G04 #@! TO.C,L3*
X153160252Y-109422000D02*
X152637748Y-109422000D01*
X153160252Y-108002000D02*
X152637748Y-108002000D01*
G04 #@! TO.C,REG1*
X132720000Y-112630000D02*
X132720000Y-111370000D01*
X132720000Y-105810000D02*
X132720000Y-107070000D01*
X128960000Y-112630000D02*
X132720000Y-112630000D01*
X126710000Y-105810000D02*
X132720000Y-105810000D01*
G04 #@! TO.C,REG2*
X114590000Y-112630000D02*
X108580000Y-112630000D01*
X112340000Y-105810000D02*
X108580000Y-105810000D01*
X108580000Y-112630000D02*
X108580000Y-111370000D01*
X108580000Y-105810000D02*
X108580000Y-107070000D01*
G04 #@! TO.C,OSC1*
X142599000Y-99671000D02*
X142599000Y-99281000D01*
X142599000Y-99281000D02*
X146199000Y-99281000D01*
X146199000Y-99281000D02*
X146199000Y-99671000D01*
X142599000Y-102351000D02*
X142599000Y-101611000D01*
X146899000Y-104291000D02*
X146199000Y-104291000D01*
X146199000Y-104291000D02*
X146199000Y-104681000D01*
X146199000Y-104681000D02*
X142599000Y-104681000D01*
X142599000Y-104681000D02*
X142599000Y-104291000D01*
X146199000Y-101611000D02*
X146199000Y-102351000D01*
X146199000Y-102351000D02*
X146899000Y-102351000D01*
G04 #@! TO.C,L2*
X152348000Y-100830748D02*
X152348000Y-101353252D01*
X150928000Y-100830748D02*
X150928000Y-101353252D01*
G04 #@! TO.C,R38*
X115772000Y-88257748D02*
X115772000Y-88780252D01*
X114352000Y-88257748D02*
X114352000Y-88780252D01*
D14*
G04 #@! TO.C,U2*
X127910000Y-92550000D02*
X127160000Y-91800000D01*
X127160000Y-73300000D02*
X127160000Y-72550000D01*
X127160000Y-72550000D02*
X127910000Y-72550000D01*
X147160000Y-91800000D02*
X147160000Y-92550000D01*
X147160000Y-92550000D02*
X146410000Y-92550000D01*
X147160000Y-73300000D02*
X147160000Y-72550000D01*
X147160000Y-72550000D02*
X146410000Y-72550000D01*
D13*
G04 #@! TO.C,RFCONC1*
X127060000Y-62170000D02*
X124400000Y-62170000D01*
X127060000Y-69850000D02*
X127060000Y-62170000D01*
X124400000Y-69850000D02*
X124400000Y-62170000D01*
X127060000Y-69850000D02*
X124400000Y-69850000D01*
X127060000Y-71120000D02*
X127060000Y-72450000D01*
X127060000Y-72450000D02*
X125730000Y-72450000D01*
G04 #@! TO.C,RFCONC2*
X127060000Y-103946000D02*
X125730000Y-103946000D01*
X127060000Y-102616000D02*
X127060000Y-103946000D01*
X127060000Y-101346000D02*
X124400000Y-101346000D01*
X124400000Y-101346000D02*
X124400000Y-93666000D01*
X127060000Y-101346000D02*
X127060000Y-93666000D01*
X127060000Y-93666000D02*
X124400000Y-93666000D01*
G04 #@! TO.C,GND5*
X163890000Y-85785000D02*
X162560000Y-85785000D01*
X163890000Y-84455000D02*
X163890000Y-85785000D01*
X163890000Y-83185000D02*
X161230000Y-83185000D01*
X161230000Y-83185000D02*
X161230000Y-80585000D01*
X163890000Y-83185000D02*
X163890000Y-80585000D01*
X163890000Y-80585000D02*
X161230000Y-80585000D01*
G04 #@! TO.C,C28*
X112520000Y-73196267D02*
X112520000Y-72853733D01*
X113540000Y-73196267D02*
X113540000Y-72853733D01*
G04 #@! TO.C,R39*
X111200000Y-84081252D02*
X111200000Y-83558748D01*
X109780000Y-84081252D02*
X109780000Y-83558748D01*
G04 #@! TO.C,R40*
X109780000Y-80017252D02*
X109780000Y-79494748D01*
X111200000Y-80017252D02*
X111200000Y-79494748D01*
D14*
G04 #@! TO.C,J1*
X167005000Y-72850000D02*
X165505000Y-72850000D01*
X165505000Y-66850000D02*
X167005000Y-66850000D01*
X167005000Y-66850000D02*
X167005000Y-72850000D01*
X165505000Y-72850000D02*
X164505000Y-72850000D01*
X165505000Y-66850000D02*
X164505000Y-66850000D01*
X164505000Y-72850000D02*
X164505000Y-73850000D01*
X164505000Y-73850000D02*
X162005000Y-73850000D01*
X160005000Y-73850000D02*
X152005000Y-73850000D01*
X164505000Y-66850000D02*
X164505000Y-65850000D01*
X164505000Y-65850000D02*
X162005000Y-65850000D01*
X160005000Y-65850000D02*
X152005000Y-65850000D01*
D13*
G04 #@! TO.C,C8*
X134220000Y-96920000D02*
X131870000Y-96920000D01*
X127400000Y-96920000D02*
X129750000Y-96920000D01*
X127400000Y-102675563D02*
X127400000Y-96920000D01*
X134220000Y-102675563D02*
X134220000Y-96920000D01*
X133155563Y-103740000D02*
X131870000Y-103740000D01*
X128464437Y-103740000D02*
X129750000Y-103740000D01*
X128464437Y-103740000D02*
X127400000Y-102675563D01*
X133155563Y-103740000D02*
X134220000Y-102675563D01*
X128962500Y-104767500D02*
X128962500Y-103980000D01*
X128568750Y-104373750D02*
X129356250Y-104373750D01*
G04 #@! TO.C,JPLUM1*
X119491000Y-92902000D02*
G75*
G02X118791000Y-93602000I-700000J0D01*
G01*
X118191000Y-93602000D02*
G75*
G02X117491000Y-92902000I0J700000D01*
G01*
X117491000Y-91502000D02*
G75*
G02X118191000Y-90802000I700000J0D01*
G01*
X118791000Y-90802000D02*
G75*
G02X119491000Y-91502000I0J-700000D01*
G01*
X118191000Y-90802000D02*
X118791000Y-90802000D01*
X117491000Y-92902000D02*
X117491000Y-91502000D01*
X118791000Y-93602000D02*
X118191000Y-93602000D01*
X119491000Y-91502000D02*
X119491000Y-92902000D01*
D14*
G04 #@! TO.C,SW1*
X161155000Y-104020000D02*
X161155000Y-89020000D01*
X165155000Y-89020000D02*
X165155000Y-104020000D01*
X165155000Y-97020000D02*
X166655000Y-97020000D01*
X166655000Y-97020000D02*
X166655000Y-96020000D01*
X166655000Y-96020000D02*
X165155000Y-96020000D01*
X161155000Y-104020000D02*
X161155000Y-104420000D01*
X161155000Y-104420000D02*
X165155000Y-104420000D01*
X165155000Y-104420000D02*
X165155000Y-104020000D01*
X161155000Y-89020000D02*
X161155000Y-88620000D01*
X161155000Y-88620000D02*
X165155000Y-88620000D01*
X165155000Y-88620000D02*
X165155000Y-89120000D01*
X165155000Y-89120000D02*
X165155000Y-89020000D01*
D13*
G04 #@! TO.C,GND1*
X116780000Y-114360000D02*
X119440000Y-114360000D01*
X116780000Y-114300000D02*
X116780000Y-114360000D01*
X119440000Y-114300000D02*
X119440000Y-114360000D01*
X116780000Y-114300000D02*
X119440000Y-114300000D01*
X116780000Y-113030000D02*
X116780000Y-111700000D01*
X116780000Y-111700000D02*
X118110000Y-111700000D01*
G04 #@! TO.C,GND2*
X116780000Y-51375000D02*
X118110000Y-51375000D01*
X116780000Y-52705000D02*
X116780000Y-51375000D01*
X116780000Y-53975000D02*
X119440000Y-53975000D01*
X119440000Y-53975000D02*
X119440000Y-54035000D01*
X116780000Y-53975000D02*
X116780000Y-54035000D01*
X116780000Y-54035000D02*
X119440000Y-54035000D01*
G04 #@! TO.C,GND3*
X145990000Y-111700000D02*
X147320000Y-111700000D01*
X145990000Y-113030000D02*
X145990000Y-111700000D01*
X145990000Y-114300000D02*
X148650000Y-114300000D01*
X148650000Y-114300000D02*
X148650000Y-114360000D01*
X145990000Y-114300000D02*
X145990000Y-114360000D01*
X145990000Y-114360000D02*
X148650000Y-114360000D01*
G04 #@! TO.C,GND4*
X145990000Y-54035000D02*
X148650000Y-54035000D01*
X145990000Y-53975000D02*
X145990000Y-54035000D01*
X148650000Y-53975000D02*
X148650000Y-54035000D01*
X145990000Y-53975000D02*
X148650000Y-53975000D01*
X145990000Y-52705000D02*
X145990000Y-51375000D01*
X145990000Y-51375000D02*
X147320000Y-51375000D01*
G04 #@! TO.C,R32*
D14*
X117037380Y-78747857D02*
X116561190Y-79081190D01*
X117037380Y-79319285D02*
X116037380Y-79319285D01*
X116037380Y-78938333D01*
X116085000Y-78843095D01*
X116132619Y-78795476D01*
X116227857Y-78747857D01*
X116370714Y-78747857D01*
X116465952Y-78795476D01*
X116513571Y-78843095D01*
X116561190Y-78938333D01*
X116561190Y-79319285D01*
X116037380Y-78414523D02*
X116037380Y-77795476D01*
X116418333Y-78128809D01*
X116418333Y-77985952D01*
X116465952Y-77890714D01*
X116513571Y-77843095D01*
X116608809Y-77795476D01*
X116846904Y-77795476D01*
X116942142Y-77843095D01*
X116989761Y-77890714D01*
X117037380Y-77985952D01*
X117037380Y-78271666D01*
X116989761Y-78366904D01*
X116942142Y-78414523D01*
X116132619Y-77414523D02*
X116085000Y-77366904D01*
X116037380Y-77271666D01*
X116037380Y-77033571D01*
X116085000Y-76938333D01*
X116132619Y-76890714D01*
X116227857Y-76843095D01*
X116323095Y-76843095D01*
X116465952Y-76890714D01*
X117037380Y-77462142D01*
X117037380Y-76843095D01*
G04 #@! TO.C,R36*
X120720380Y-85097857D02*
X120244190Y-85431190D01*
X120720380Y-85669285D02*
X119720380Y-85669285D01*
X119720380Y-85288333D01*
X119768000Y-85193095D01*
X119815619Y-85145476D01*
X119910857Y-85097857D01*
X120053714Y-85097857D01*
X120148952Y-85145476D01*
X120196571Y-85193095D01*
X120244190Y-85288333D01*
X120244190Y-85669285D01*
X119720380Y-84764523D02*
X119720380Y-84145476D01*
X120101333Y-84478809D01*
X120101333Y-84335952D01*
X120148952Y-84240714D01*
X120196571Y-84193095D01*
X120291809Y-84145476D01*
X120529904Y-84145476D01*
X120625142Y-84193095D01*
X120672761Y-84240714D01*
X120720380Y-84335952D01*
X120720380Y-84621666D01*
X120672761Y-84716904D01*
X120625142Y-84764523D01*
X119720380Y-83288333D02*
X119720380Y-83478809D01*
X119768000Y-83574047D01*
X119815619Y-83621666D01*
X119958476Y-83716904D01*
X120148952Y-83764523D01*
X120529904Y-83764523D01*
X120625142Y-83716904D01*
X120672761Y-83669285D01*
X120720380Y-83574047D01*
X120720380Y-83383571D01*
X120672761Y-83288333D01*
X120625142Y-83240714D01*
X120529904Y-83193095D01*
X120291809Y-83193095D01*
X120196571Y-83240714D01*
X120148952Y-83288333D01*
X120101333Y-83383571D01*
X120101333Y-83574047D01*
X120148952Y-83669285D01*
X120196571Y-83716904D01*
X120291809Y-83764523D01*
G04 #@! TO.C,C2*
X152741333Y-113260142D02*
X152693714Y-113307761D01*
X152550857Y-113355380D01*
X152455619Y-113355380D01*
X152312761Y-113307761D01*
X152217523Y-113212523D01*
X152169904Y-113117285D01*
X152122285Y-112926809D01*
X152122285Y-112783952D01*
X152169904Y-112593476D01*
X152217523Y-112498238D01*
X152312761Y-112403000D01*
X152455619Y-112355380D01*
X152550857Y-112355380D01*
X152693714Y-112403000D01*
X152741333Y-112450619D01*
X153122285Y-112450619D02*
X153169904Y-112403000D01*
X153265142Y-112355380D01*
X153503238Y-112355380D01*
X153598476Y-112403000D01*
X153646095Y-112450619D01*
X153693714Y-112545857D01*
X153693714Y-112641095D01*
X153646095Y-112783952D01*
X153074666Y-113355380D01*
X153693714Y-113355380D01*
G04 #@! TO.C,R33*
X112847380Y-56395857D02*
X112371190Y-56729190D01*
X112847380Y-56967285D02*
X111847380Y-56967285D01*
X111847380Y-56586333D01*
X111895000Y-56491095D01*
X111942619Y-56443476D01*
X112037857Y-56395857D01*
X112180714Y-56395857D01*
X112275952Y-56443476D01*
X112323571Y-56491095D01*
X112371190Y-56586333D01*
X112371190Y-56967285D01*
X111847380Y-56062523D02*
X111847380Y-55443476D01*
X112228333Y-55776809D01*
X112228333Y-55633952D01*
X112275952Y-55538714D01*
X112323571Y-55491095D01*
X112418809Y-55443476D01*
X112656904Y-55443476D01*
X112752142Y-55491095D01*
X112799761Y-55538714D01*
X112847380Y-55633952D01*
X112847380Y-55919666D01*
X112799761Y-56014904D01*
X112752142Y-56062523D01*
X111847380Y-55110142D02*
X111847380Y-54491095D01*
X112228333Y-54824428D01*
X112228333Y-54681571D01*
X112275952Y-54586333D01*
X112323571Y-54538714D01*
X112418809Y-54491095D01*
X112656904Y-54491095D01*
X112752142Y-54538714D01*
X112799761Y-54586333D01*
X112847380Y-54681571D01*
X112847380Y-54967285D01*
X112799761Y-55062523D01*
X112752142Y-55110142D01*
G04 #@! TO.C,C30*
X124944142Y-113545857D02*
X124991761Y-113593476D01*
X125039380Y-113736333D01*
X125039380Y-113831571D01*
X124991761Y-113974428D01*
X124896523Y-114069666D01*
X124801285Y-114117285D01*
X124610809Y-114164904D01*
X124467952Y-114164904D01*
X124277476Y-114117285D01*
X124182238Y-114069666D01*
X124087000Y-113974428D01*
X124039380Y-113831571D01*
X124039380Y-113736333D01*
X124087000Y-113593476D01*
X124134619Y-113545857D01*
X124039380Y-113212523D02*
X124039380Y-112593476D01*
X124420333Y-112926809D01*
X124420333Y-112783952D01*
X124467952Y-112688714D01*
X124515571Y-112641095D01*
X124610809Y-112593476D01*
X124848904Y-112593476D01*
X124944142Y-112641095D01*
X124991761Y-112688714D01*
X125039380Y-112783952D01*
X125039380Y-113069666D01*
X124991761Y-113164904D01*
X124944142Y-113212523D01*
X124039380Y-111974428D02*
X124039380Y-111879190D01*
X124087000Y-111783952D01*
X124134619Y-111736333D01*
X124229857Y-111688714D01*
X124420333Y-111641095D01*
X124658428Y-111641095D01*
X124848904Y-111688714D01*
X124944142Y-111736333D01*
X124991761Y-111783952D01*
X125039380Y-111879190D01*
X125039380Y-111974428D01*
X124991761Y-112069666D01*
X124944142Y-112117285D01*
X124848904Y-112164904D01*
X124658428Y-112212523D01*
X124420333Y-112212523D01*
X124229857Y-112164904D01*
X124134619Y-112117285D01*
X124087000Y-112069666D01*
X124039380Y-111974428D01*
G04 #@! TO.C,R37*
X117164380Y-85097857D02*
X116688190Y-85431190D01*
X117164380Y-85669285D02*
X116164380Y-85669285D01*
X116164380Y-85288333D01*
X116212000Y-85193095D01*
X116259619Y-85145476D01*
X116354857Y-85097857D01*
X116497714Y-85097857D01*
X116592952Y-85145476D01*
X116640571Y-85193095D01*
X116688190Y-85288333D01*
X116688190Y-85669285D01*
X116164380Y-84764523D02*
X116164380Y-84145476D01*
X116545333Y-84478809D01*
X116545333Y-84335952D01*
X116592952Y-84240714D01*
X116640571Y-84193095D01*
X116735809Y-84145476D01*
X116973904Y-84145476D01*
X117069142Y-84193095D01*
X117116761Y-84240714D01*
X117164380Y-84335952D01*
X117164380Y-84621666D01*
X117116761Y-84716904D01*
X117069142Y-84764523D01*
X116164380Y-83812142D02*
X116164380Y-83145476D01*
X117164380Y-83574047D01*
G04 #@! TO.C,R34*
X115387380Y-56395857D02*
X114911190Y-56729190D01*
X115387380Y-56967285D02*
X114387380Y-56967285D01*
X114387380Y-56586333D01*
X114435000Y-56491095D01*
X114482619Y-56443476D01*
X114577857Y-56395857D01*
X114720714Y-56395857D01*
X114815952Y-56443476D01*
X114863571Y-56491095D01*
X114911190Y-56586333D01*
X114911190Y-56967285D01*
X114387380Y-56062523D02*
X114387380Y-55443476D01*
X114768333Y-55776809D01*
X114768333Y-55633952D01*
X114815952Y-55538714D01*
X114863571Y-55491095D01*
X114958809Y-55443476D01*
X115196904Y-55443476D01*
X115292142Y-55491095D01*
X115339761Y-55538714D01*
X115387380Y-55633952D01*
X115387380Y-55919666D01*
X115339761Y-56014904D01*
X115292142Y-56062523D01*
X114720714Y-54586333D02*
X115387380Y-54586333D01*
X114339761Y-54824428D02*
X115054047Y-55062523D01*
X115054047Y-54443476D01*
G04 #@! TO.C,R35*
X117927380Y-56395857D02*
X117451190Y-56729190D01*
X117927380Y-56967285D02*
X116927380Y-56967285D01*
X116927380Y-56586333D01*
X116975000Y-56491095D01*
X117022619Y-56443476D01*
X117117857Y-56395857D01*
X117260714Y-56395857D01*
X117355952Y-56443476D01*
X117403571Y-56491095D01*
X117451190Y-56586333D01*
X117451190Y-56967285D01*
X116927380Y-56062523D02*
X116927380Y-55443476D01*
X117308333Y-55776809D01*
X117308333Y-55633952D01*
X117355952Y-55538714D01*
X117403571Y-55491095D01*
X117498809Y-55443476D01*
X117736904Y-55443476D01*
X117832142Y-55491095D01*
X117879761Y-55538714D01*
X117927380Y-55633952D01*
X117927380Y-55919666D01*
X117879761Y-56014904D01*
X117832142Y-56062523D01*
X116927380Y-54538714D02*
X116927380Y-55014904D01*
X117403571Y-55062523D01*
X117355952Y-55014904D01*
X117308333Y-54919666D01*
X117308333Y-54681571D01*
X117355952Y-54586333D01*
X117403571Y-54538714D01*
X117498809Y-54491095D01*
X117736904Y-54491095D01*
X117832142Y-54538714D01*
X117879761Y-54586333D01*
X117927380Y-54681571D01*
X117927380Y-54919666D01*
X117879761Y-55014904D01*
X117832142Y-55062523D01*
G04 #@! TO.C,C10*
X114292142Y-75795142D02*
X114244523Y-75842761D01*
X114101666Y-75890380D01*
X114006428Y-75890380D01*
X113863571Y-75842761D01*
X113768333Y-75747523D01*
X113720714Y-75652285D01*
X113673095Y-75461809D01*
X113673095Y-75318952D01*
X113720714Y-75128476D01*
X113768333Y-75033238D01*
X113863571Y-74938000D01*
X114006428Y-74890380D01*
X114101666Y-74890380D01*
X114244523Y-74938000D01*
X114292142Y-74985619D01*
X115244523Y-75890380D02*
X114673095Y-75890380D01*
X114958809Y-75890380D02*
X114958809Y-74890380D01*
X114863571Y-75033238D01*
X114768333Y-75128476D01*
X114673095Y-75176095D01*
X115863571Y-74890380D02*
X115958809Y-74890380D01*
X116054047Y-74938000D01*
X116101666Y-74985619D01*
X116149285Y-75080857D01*
X116196904Y-75271333D01*
X116196904Y-75509428D01*
X116149285Y-75699904D01*
X116101666Y-75795142D01*
X116054047Y-75842761D01*
X115958809Y-75890380D01*
X115863571Y-75890380D01*
X115768333Y-75842761D01*
X115720714Y-75795142D01*
X115673095Y-75699904D01*
X115625476Y-75509428D01*
X115625476Y-75271333D01*
X115673095Y-75080857D01*
X115720714Y-74985619D01*
X115768333Y-74938000D01*
X115863571Y-74890380D01*
G04 #@! TO.C,C4*
X147407333Y-95734142D02*
X147359714Y-95781761D01*
X147216857Y-95829380D01*
X147121619Y-95829380D01*
X146978761Y-95781761D01*
X146883523Y-95686523D01*
X146835904Y-95591285D01*
X146788285Y-95400809D01*
X146788285Y-95257952D01*
X146835904Y-95067476D01*
X146883523Y-94972238D01*
X146978761Y-94877000D01*
X147121619Y-94829380D01*
X147216857Y-94829380D01*
X147359714Y-94877000D01*
X147407333Y-94924619D01*
X148264476Y-95162714D02*
X148264476Y-95829380D01*
X148026380Y-94781761D02*
X147788285Y-95496047D01*
X148407333Y-95496047D01*
G04 #@! TO.C,C3*
X151471333Y-95735142D02*
X151423714Y-95782761D01*
X151280857Y-95830380D01*
X151185619Y-95830380D01*
X151042761Y-95782761D01*
X150947523Y-95687523D01*
X150899904Y-95592285D01*
X150852285Y-95401809D01*
X150852285Y-95258952D01*
X150899904Y-95068476D01*
X150947523Y-94973238D01*
X151042761Y-94878000D01*
X151185619Y-94830380D01*
X151280857Y-94830380D01*
X151423714Y-94878000D01*
X151471333Y-94925619D01*
X151804666Y-94830380D02*
X152423714Y-94830380D01*
X152090380Y-95211333D01*
X152233238Y-95211333D01*
X152328476Y-95258952D01*
X152376095Y-95306571D01*
X152423714Y-95401809D01*
X152423714Y-95639904D01*
X152376095Y-95735142D01*
X152328476Y-95782761D01*
X152233238Y-95830380D01*
X151947523Y-95830380D01*
X151852285Y-95782761D01*
X151804666Y-95735142D01*
G04 #@! TO.C,C1*
X118848142Y-107989666D02*
X118895761Y-108037285D01*
X118943380Y-108180142D01*
X118943380Y-108275380D01*
X118895761Y-108418238D01*
X118800523Y-108513476D01*
X118705285Y-108561095D01*
X118514809Y-108608714D01*
X118371952Y-108608714D01*
X118181476Y-108561095D01*
X118086238Y-108513476D01*
X117991000Y-108418238D01*
X117943380Y-108275380D01*
X117943380Y-108180142D01*
X117991000Y-108037285D01*
X118038619Y-107989666D01*
X118943380Y-107037285D02*
X118943380Y-107608714D01*
X118943380Y-107323000D02*
X117943380Y-107323000D01*
X118086238Y-107418238D01*
X118181476Y-107513476D01*
X118229095Y-107608714D01*
G04 #@! TO.C,AMP1*
X159392714Y-104608333D02*
X158916523Y-104608333D01*
X159487952Y-104322619D02*
X159154619Y-105322619D01*
X158821285Y-104322619D01*
X158487952Y-104322619D02*
X158487952Y-105322619D01*
X158154619Y-104608333D01*
X157821285Y-105322619D01*
X157821285Y-104322619D01*
X157345095Y-104322619D02*
X157345095Y-105322619D01*
X156964142Y-105322619D01*
X156868904Y-105275000D01*
X156821285Y-105227380D01*
X156773666Y-105132142D01*
X156773666Y-104989285D01*
X156821285Y-104894047D01*
X156868904Y-104846428D01*
X156964142Y-104798809D01*
X157345095Y-104798809D01*
X155821285Y-104322619D02*
X156392714Y-104322619D01*
X156107000Y-104322619D02*
X156107000Y-105322619D01*
X156202238Y-105179761D01*
X156297476Y-105084523D01*
X156392714Y-105036904D01*
G04 #@! TO.C,C5*
X153376333Y-104878142D02*
X153328714Y-104925761D01*
X153185857Y-104973380D01*
X153090619Y-104973380D01*
X152947761Y-104925761D01*
X152852523Y-104830523D01*
X152804904Y-104735285D01*
X152757285Y-104544809D01*
X152757285Y-104401952D01*
X152804904Y-104211476D01*
X152852523Y-104116238D01*
X152947761Y-104021000D01*
X153090619Y-103973380D01*
X153185857Y-103973380D01*
X153328714Y-104021000D01*
X153376333Y-104068619D01*
X154281095Y-103973380D02*
X153804904Y-103973380D01*
X153757285Y-104449571D01*
X153804904Y-104401952D01*
X153900142Y-104354333D01*
X154138238Y-104354333D01*
X154233476Y-104401952D01*
X154281095Y-104449571D01*
X154328714Y-104544809D01*
X154328714Y-104782904D01*
X154281095Y-104878142D01*
X154233476Y-104925761D01*
X154138238Y-104973380D01*
X153900142Y-104973380D01*
X153804904Y-104925761D01*
X153757285Y-104878142D01*
G04 #@! TO.C,AMP2*
X114165285Y-62269666D02*
X114641476Y-62269666D01*
X114070047Y-62555380D02*
X114403380Y-61555380D01*
X114736714Y-62555380D01*
X115070047Y-62555380D02*
X115070047Y-61555380D01*
X115403380Y-62269666D01*
X115736714Y-61555380D01*
X115736714Y-62555380D01*
X116212904Y-62555380D02*
X116212904Y-61555380D01*
X116593857Y-61555380D01*
X116689095Y-61603000D01*
X116736714Y-61650619D01*
X116784333Y-61745857D01*
X116784333Y-61888714D01*
X116736714Y-61983952D01*
X116689095Y-62031571D01*
X116593857Y-62079190D01*
X116212904Y-62079190D01*
X117165285Y-61650619D02*
X117212904Y-61603000D01*
X117308142Y-61555380D01*
X117546238Y-61555380D01*
X117641476Y-61603000D01*
X117689095Y-61650619D01*
X117736714Y-61745857D01*
X117736714Y-61841095D01*
X117689095Y-61983952D01*
X117117666Y-62555380D01*
X117736714Y-62555380D01*
G04 #@! TO.C,C9*
X122149142Y-78652666D02*
X122196761Y-78700285D01*
X122244380Y-78843142D01*
X122244380Y-78938380D01*
X122196761Y-79081238D01*
X122101523Y-79176476D01*
X122006285Y-79224095D01*
X121815809Y-79271714D01*
X121672952Y-79271714D01*
X121482476Y-79224095D01*
X121387238Y-79176476D01*
X121292000Y-79081238D01*
X121244380Y-78938380D01*
X121244380Y-78843142D01*
X121292000Y-78700285D01*
X121339619Y-78652666D01*
X122244380Y-78176476D02*
X122244380Y-77986000D01*
X122196761Y-77890761D01*
X122149142Y-77843142D01*
X122006285Y-77747904D01*
X121815809Y-77700285D01*
X121434857Y-77700285D01*
X121339619Y-77747904D01*
X121292000Y-77795523D01*
X121244380Y-77890761D01*
X121244380Y-78081238D01*
X121292000Y-78176476D01*
X121339619Y-78224095D01*
X121434857Y-78271714D01*
X121672952Y-78271714D01*
X121768190Y-78224095D01*
X121815809Y-78176476D01*
X121863428Y-78081238D01*
X121863428Y-77890761D01*
X121815809Y-77795523D01*
X121768190Y-77747904D01*
X121672952Y-77700285D01*
G04 #@! TO.C,GPIO1*
X140763809Y-56015000D02*
X140668571Y-55967380D01*
X140525714Y-55967380D01*
X140382857Y-56015000D01*
X140287619Y-56110238D01*
X140240000Y-56205476D01*
X140192380Y-56395952D01*
X140192380Y-56538809D01*
X140240000Y-56729285D01*
X140287619Y-56824523D01*
X140382857Y-56919761D01*
X140525714Y-56967380D01*
X140620952Y-56967380D01*
X140763809Y-56919761D01*
X140811428Y-56872142D01*
X140811428Y-56538809D01*
X140620952Y-56538809D01*
X141240000Y-56967380D02*
X141240000Y-55967380D01*
X141620952Y-55967380D01*
X141716190Y-56015000D01*
X141763809Y-56062619D01*
X141811428Y-56157857D01*
X141811428Y-56300714D01*
X141763809Y-56395952D01*
X141716190Y-56443571D01*
X141620952Y-56491190D01*
X141240000Y-56491190D01*
X142240000Y-56967380D02*
X142240000Y-55967380D01*
X142906666Y-55967380D02*
X143097142Y-55967380D01*
X143192380Y-56015000D01*
X143287619Y-56110238D01*
X143335238Y-56300714D01*
X143335238Y-56634047D01*
X143287619Y-56824523D01*
X143192380Y-56919761D01*
X143097142Y-56967380D01*
X142906666Y-56967380D01*
X142811428Y-56919761D01*
X142716190Y-56824523D01*
X142668571Y-56634047D01*
X142668571Y-56300714D01*
X142716190Y-56110238D01*
X142811428Y-56015000D01*
X142906666Y-55967380D01*
X144287619Y-56967380D02*
X143716190Y-56967380D01*
X144001904Y-56967380D02*
X144001904Y-55967380D01*
X143906666Y-56110238D01*
X143811428Y-56205476D01*
X143716190Y-56253095D01*
G04 #@! TO.C,C29*
X117340142Y-75795142D02*
X117292523Y-75842761D01*
X117149666Y-75890380D01*
X117054428Y-75890380D01*
X116911571Y-75842761D01*
X116816333Y-75747523D01*
X116768714Y-75652285D01*
X116721095Y-75461809D01*
X116721095Y-75318952D01*
X116768714Y-75128476D01*
X116816333Y-75033238D01*
X116911571Y-74938000D01*
X117054428Y-74890380D01*
X117149666Y-74890380D01*
X117292523Y-74938000D01*
X117340142Y-74985619D01*
X117721095Y-74985619D02*
X117768714Y-74938000D01*
X117863952Y-74890380D01*
X118102047Y-74890380D01*
X118197285Y-74938000D01*
X118244904Y-74985619D01*
X118292523Y-75080857D01*
X118292523Y-75176095D01*
X118244904Y-75318952D01*
X117673476Y-75890380D01*
X118292523Y-75890380D01*
X118768714Y-75890380D02*
X118959190Y-75890380D01*
X119054428Y-75842761D01*
X119102047Y-75795142D01*
X119197285Y-75652285D01*
X119244904Y-75461809D01*
X119244904Y-75080857D01*
X119197285Y-74985619D01*
X119149666Y-74938000D01*
X119054428Y-74890380D01*
X118863952Y-74890380D01*
X118768714Y-74938000D01*
X118721095Y-74985619D01*
X118673476Y-75080857D01*
X118673476Y-75318952D01*
X118721095Y-75414190D01*
X118768714Y-75461809D01*
X118863952Y-75509428D01*
X119054428Y-75509428D01*
X119149666Y-75461809D01*
X119197285Y-75414190D01*
X119244904Y-75318952D01*
G04 #@! TO.C,R19*
X165044380Y-76080857D02*
X164568190Y-76414190D01*
X165044380Y-76652285D02*
X164044380Y-76652285D01*
X164044380Y-76271333D01*
X164092000Y-76176095D01*
X164139619Y-76128476D01*
X164234857Y-76080857D01*
X164377714Y-76080857D01*
X164472952Y-76128476D01*
X164520571Y-76176095D01*
X164568190Y-76271333D01*
X164568190Y-76652285D01*
X165044380Y-75128476D02*
X165044380Y-75699904D01*
X165044380Y-75414190D02*
X164044380Y-75414190D01*
X164187238Y-75509428D01*
X164282476Y-75604666D01*
X164330095Y-75699904D01*
X165044380Y-74652285D02*
X165044380Y-74461809D01*
X164996761Y-74366571D01*
X164949142Y-74318952D01*
X164806285Y-74223714D01*
X164615809Y-74176095D01*
X164234857Y-74176095D01*
X164139619Y-74223714D01*
X164092000Y-74271333D01*
X164044380Y-74366571D01*
X164044380Y-74557047D01*
X164092000Y-74652285D01*
X164139619Y-74699904D01*
X164234857Y-74747523D01*
X164472952Y-74747523D01*
X164568190Y-74699904D01*
X164615809Y-74652285D01*
X164663428Y-74557047D01*
X164663428Y-74366571D01*
X164615809Y-74271333D01*
X164568190Y-74223714D01*
X164472952Y-74176095D01*
G04 #@! TO.C,R25*
X125165380Y-84462857D02*
X124689190Y-84796190D01*
X125165380Y-85034285D02*
X124165380Y-85034285D01*
X124165380Y-84653333D01*
X124213000Y-84558095D01*
X124260619Y-84510476D01*
X124355857Y-84462857D01*
X124498714Y-84462857D01*
X124593952Y-84510476D01*
X124641571Y-84558095D01*
X124689190Y-84653333D01*
X124689190Y-85034285D01*
X124260619Y-84081904D02*
X124213000Y-84034285D01*
X124165380Y-83939047D01*
X124165380Y-83700952D01*
X124213000Y-83605714D01*
X124260619Y-83558095D01*
X124355857Y-83510476D01*
X124451095Y-83510476D01*
X124593952Y-83558095D01*
X125165380Y-84129523D01*
X125165380Y-83510476D01*
X124165380Y-82605714D02*
X124165380Y-83081904D01*
X124641571Y-83129523D01*
X124593952Y-83081904D01*
X124546333Y-82986666D01*
X124546333Y-82748571D01*
X124593952Y-82653333D01*
X124641571Y-82605714D01*
X124736809Y-82558095D01*
X124974904Y-82558095D01*
X125070142Y-82605714D01*
X125117761Y-82653333D01*
X125165380Y-82748571D01*
X125165380Y-82986666D01*
X125117761Y-83081904D01*
X125070142Y-83129523D01*
G04 #@! TO.C,R28*
X159329380Y-111767857D02*
X158853190Y-112101190D01*
X159329380Y-112339285D02*
X158329380Y-112339285D01*
X158329380Y-111958333D01*
X158377000Y-111863095D01*
X158424619Y-111815476D01*
X158519857Y-111767857D01*
X158662714Y-111767857D01*
X158757952Y-111815476D01*
X158805571Y-111863095D01*
X158853190Y-111958333D01*
X158853190Y-112339285D01*
X158424619Y-111386904D02*
X158377000Y-111339285D01*
X158329380Y-111244047D01*
X158329380Y-111005952D01*
X158377000Y-110910714D01*
X158424619Y-110863095D01*
X158519857Y-110815476D01*
X158615095Y-110815476D01*
X158757952Y-110863095D01*
X159329380Y-111434523D01*
X159329380Y-110815476D01*
X158757952Y-110244047D02*
X158710333Y-110339285D01*
X158662714Y-110386904D01*
X158567476Y-110434523D01*
X158519857Y-110434523D01*
X158424619Y-110386904D01*
X158377000Y-110339285D01*
X158329380Y-110244047D01*
X158329380Y-110053571D01*
X158377000Y-109958333D01*
X158424619Y-109910714D01*
X158519857Y-109863095D01*
X158567476Y-109863095D01*
X158662714Y-109910714D01*
X158710333Y-109958333D01*
X158757952Y-110053571D01*
X158757952Y-110244047D01*
X158805571Y-110339285D01*
X158853190Y-110386904D01*
X158948428Y-110434523D01*
X159138904Y-110434523D01*
X159234142Y-110386904D01*
X159281761Y-110339285D01*
X159329380Y-110244047D01*
X159329380Y-110053571D01*
X159281761Y-109958333D01*
X159234142Y-109910714D01*
X159138904Y-109863095D01*
X158948428Y-109863095D01*
X158853190Y-109910714D01*
X158805571Y-109958333D01*
X158757952Y-110053571D01*
G04 #@! TO.C,R20*
X140913380Y-102623857D02*
X140437190Y-102957190D01*
X140913380Y-103195285D02*
X139913380Y-103195285D01*
X139913380Y-102814333D01*
X139961000Y-102719095D01*
X140008619Y-102671476D01*
X140103857Y-102623857D01*
X140246714Y-102623857D01*
X140341952Y-102671476D01*
X140389571Y-102719095D01*
X140437190Y-102814333D01*
X140437190Y-103195285D01*
X140008619Y-102242904D02*
X139961000Y-102195285D01*
X139913380Y-102100047D01*
X139913380Y-101861952D01*
X139961000Y-101766714D01*
X140008619Y-101719095D01*
X140103857Y-101671476D01*
X140199095Y-101671476D01*
X140341952Y-101719095D01*
X140913380Y-102290523D01*
X140913380Y-101671476D01*
X139913380Y-101052428D02*
X139913380Y-100957190D01*
X139961000Y-100861952D01*
X140008619Y-100814333D01*
X140103857Y-100766714D01*
X140294333Y-100719095D01*
X140532428Y-100719095D01*
X140722904Y-100766714D01*
X140818142Y-100814333D01*
X140865761Y-100861952D01*
X140913380Y-100957190D01*
X140913380Y-101052428D01*
X140865761Y-101147666D01*
X140818142Y-101195285D01*
X140722904Y-101242904D01*
X140532428Y-101290523D01*
X140294333Y-101290523D01*
X140103857Y-101242904D01*
X140008619Y-101195285D01*
X139961000Y-101147666D01*
X139913380Y-101052428D01*
G04 #@! TO.C,R21*
X140913380Y-98051857D02*
X140437190Y-98385190D01*
X140913380Y-98623285D02*
X139913380Y-98623285D01*
X139913380Y-98242333D01*
X139961000Y-98147095D01*
X140008619Y-98099476D01*
X140103857Y-98051857D01*
X140246714Y-98051857D01*
X140341952Y-98099476D01*
X140389571Y-98147095D01*
X140437190Y-98242333D01*
X140437190Y-98623285D01*
X140008619Y-97670904D02*
X139961000Y-97623285D01*
X139913380Y-97528047D01*
X139913380Y-97289952D01*
X139961000Y-97194714D01*
X140008619Y-97147095D01*
X140103857Y-97099476D01*
X140199095Y-97099476D01*
X140341952Y-97147095D01*
X140913380Y-97718523D01*
X140913380Y-97099476D01*
X140913380Y-96147095D02*
X140913380Y-96718523D01*
X140913380Y-96432809D02*
X139913380Y-96432809D01*
X140056238Y-96528047D01*
X140151476Y-96623285D01*
X140199095Y-96718523D01*
G04 #@! TO.C,R14*
X149598142Y-77668380D02*
X149264809Y-77192190D01*
X149026714Y-77668380D02*
X149026714Y-76668380D01*
X149407666Y-76668380D01*
X149502904Y-76716000D01*
X149550523Y-76763619D01*
X149598142Y-76858857D01*
X149598142Y-77001714D01*
X149550523Y-77096952D01*
X149502904Y-77144571D01*
X149407666Y-77192190D01*
X149026714Y-77192190D01*
X150550523Y-77668380D02*
X149979095Y-77668380D01*
X150264809Y-77668380D02*
X150264809Y-76668380D01*
X150169571Y-76811238D01*
X150074333Y-76906476D01*
X149979095Y-76954095D01*
X151407666Y-77001714D02*
X151407666Y-77668380D01*
X151169571Y-76620761D02*
X150931476Y-77335047D01*
X151550523Y-77335047D01*
G04 #@! TO.C,R27*
X161742380Y-111767857D02*
X161266190Y-112101190D01*
X161742380Y-112339285D02*
X160742380Y-112339285D01*
X160742380Y-111958333D01*
X160790000Y-111863095D01*
X160837619Y-111815476D01*
X160932857Y-111767857D01*
X161075714Y-111767857D01*
X161170952Y-111815476D01*
X161218571Y-111863095D01*
X161266190Y-111958333D01*
X161266190Y-112339285D01*
X160837619Y-111386904D02*
X160790000Y-111339285D01*
X160742380Y-111244047D01*
X160742380Y-111005952D01*
X160790000Y-110910714D01*
X160837619Y-110863095D01*
X160932857Y-110815476D01*
X161028095Y-110815476D01*
X161170952Y-110863095D01*
X161742380Y-111434523D01*
X161742380Y-110815476D01*
X160742380Y-110482142D02*
X160742380Y-109815476D01*
X161742380Y-110244047D01*
G04 #@! TO.C,R30*
X109292380Y-73277857D02*
X108816190Y-73611190D01*
X109292380Y-73849285D02*
X108292380Y-73849285D01*
X108292380Y-73468333D01*
X108340000Y-73373095D01*
X108387619Y-73325476D01*
X108482857Y-73277857D01*
X108625714Y-73277857D01*
X108720952Y-73325476D01*
X108768571Y-73373095D01*
X108816190Y-73468333D01*
X108816190Y-73849285D01*
X108292380Y-72944523D02*
X108292380Y-72325476D01*
X108673333Y-72658809D01*
X108673333Y-72515952D01*
X108720952Y-72420714D01*
X108768571Y-72373095D01*
X108863809Y-72325476D01*
X109101904Y-72325476D01*
X109197142Y-72373095D01*
X109244761Y-72420714D01*
X109292380Y-72515952D01*
X109292380Y-72801666D01*
X109244761Y-72896904D01*
X109197142Y-72944523D01*
X108292380Y-71706428D02*
X108292380Y-71611190D01*
X108340000Y-71515952D01*
X108387619Y-71468333D01*
X108482857Y-71420714D01*
X108673333Y-71373095D01*
X108911428Y-71373095D01*
X109101904Y-71420714D01*
X109197142Y-71468333D01*
X109244761Y-71515952D01*
X109292380Y-71611190D01*
X109292380Y-71706428D01*
X109244761Y-71801666D01*
X109197142Y-71849285D01*
X109101904Y-71896904D01*
X108911428Y-71944523D01*
X108673333Y-71944523D01*
X108482857Y-71896904D01*
X108387619Y-71849285D01*
X108340000Y-71801666D01*
X108292380Y-71706428D01*
G04 #@! TO.C,R17*
X157091142Y-93797380D02*
X156757809Y-93321190D01*
X156519714Y-93797380D02*
X156519714Y-92797380D01*
X156900666Y-92797380D01*
X156995904Y-92845000D01*
X157043523Y-92892619D01*
X157091142Y-92987857D01*
X157091142Y-93130714D01*
X157043523Y-93225952D01*
X156995904Y-93273571D01*
X156900666Y-93321190D01*
X156519714Y-93321190D01*
X158043523Y-93797380D02*
X157472095Y-93797380D01*
X157757809Y-93797380D02*
X157757809Y-92797380D01*
X157662571Y-92940238D01*
X157567333Y-93035476D01*
X157472095Y-93083095D01*
X158376857Y-92797380D02*
X159043523Y-92797380D01*
X158614952Y-93797380D01*
G04 #@! TO.C,R26*
X125165380Y-78874857D02*
X124689190Y-79208190D01*
X125165380Y-79446285D02*
X124165380Y-79446285D01*
X124165380Y-79065333D01*
X124213000Y-78970095D01*
X124260619Y-78922476D01*
X124355857Y-78874857D01*
X124498714Y-78874857D01*
X124593952Y-78922476D01*
X124641571Y-78970095D01*
X124689190Y-79065333D01*
X124689190Y-79446285D01*
X124260619Y-78493904D02*
X124213000Y-78446285D01*
X124165380Y-78351047D01*
X124165380Y-78112952D01*
X124213000Y-78017714D01*
X124260619Y-77970095D01*
X124355857Y-77922476D01*
X124451095Y-77922476D01*
X124593952Y-77970095D01*
X125165380Y-78541523D01*
X125165380Y-77922476D01*
X124165380Y-77065333D02*
X124165380Y-77255809D01*
X124213000Y-77351047D01*
X124260619Y-77398666D01*
X124403476Y-77493904D01*
X124593952Y-77541523D01*
X124974904Y-77541523D01*
X125070142Y-77493904D01*
X125117761Y-77446285D01*
X125165380Y-77351047D01*
X125165380Y-77160571D01*
X125117761Y-77065333D01*
X125070142Y-77017714D01*
X124974904Y-76970095D01*
X124736809Y-76970095D01*
X124641571Y-77017714D01*
X124593952Y-77065333D01*
X124546333Y-77160571D01*
X124546333Y-77351047D01*
X124593952Y-77446285D01*
X124641571Y-77493904D01*
X124736809Y-77541523D01*
G04 #@! TO.C,R31*
X122117380Y-73032857D02*
X121641190Y-73366190D01*
X122117380Y-73604285D02*
X121117380Y-73604285D01*
X121117380Y-73223333D01*
X121165000Y-73128095D01*
X121212619Y-73080476D01*
X121307857Y-73032857D01*
X121450714Y-73032857D01*
X121545952Y-73080476D01*
X121593571Y-73128095D01*
X121641190Y-73223333D01*
X121641190Y-73604285D01*
X121117380Y-72699523D02*
X121117380Y-72080476D01*
X121498333Y-72413809D01*
X121498333Y-72270952D01*
X121545952Y-72175714D01*
X121593571Y-72128095D01*
X121688809Y-72080476D01*
X121926904Y-72080476D01*
X122022142Y-72128095D01*
X122069761Y-72175714D01*
X122117380Y-72270952D01*
X122117380Y-72556666D01*
X122069761Y-72651904D01*
X122022142Y-72699523D01*
X122117380Y-71128095D02*
X122117380Y-71699523D01*
X122117380Y-71413809D02*
X121117380Y-71413809D01*
X121260238Y-71509047D01*
X121355476Y-71604285D01*
X121403095Y-71699523D01*
G04 #@! TO.C,R29*
X156789380Y-111640857D02*
X156313190Y-111974190D01*
X156789380Y-112212285D02*
X155789380Y-112212285D01*
X155789380Y-111831333D01*
X155837000Y-111736095D01*
X155884619Y-111688476D01*
X155979857Y-111640857D01*
X156122714Y-111640857D01*
X156217952Y-111688476D01*
X156265571Y-111736095D01*
X156313190Y-111831333D01*
X156313190Y-112212285D01*
X155884619Y-111259904D02*
X155837000Y-111212285D01*
X155789380Y-111117047D01*
X155789380Y-110878952D01*
X155837000Y-110783714D01*
X155884619Y-110736095D01*
X155979857Y-110688476D01*
X156075095Y-110688476D01*
X156217952Y-110736095D01*
X156789380Y-111307523D01*
X156789380Y-110688476D01*
X156789380Y-110212285D02*
X156789380Y-110021809D01*
X156741761Y-109926571D01*
X156694142Y-109878952D01*
X156551285Y-109783714D01*
X156360809Y-109736095D01*
X155979857Y-109736095D01*
X155884619Y-109783714D01*
X155837000Y-109831333D01*
X155789380Y-109926571D01*
X155789380Y-110117047D01*
X155837000Y-110212285D01*
X155884619Y-110259904D01*
X155979857Y-110307523D01*
X156217952Y-110307523D01*
X156313190Y-110259904D01*
X156360809Y-110212285D01*
X156408428Y-110117047D01*
X156408428Y-109926571D01*
X156360809Y-109831333D01*
X156313190Y-109783714D01*
X156217952Y-109736095D01*
G04 #@! TO.C,R22*
X135326380Y-102623857D02*
X134850190Y-102957190D01*
X135326380Y-103195285D02*
X134326380Y-103195285D01*
X134326380Y-102814333D01*
X134374000Y-102719095D01*
X134421619Y-102671476D01*
X134516857Y-102623857D01*
X134659714Y-102623857D01*
X134754952Y-102671476D01*
X134802571Y-102719095D01*
X134850190Y-102814333D01*
X134850190Y-103195285D01*
X134421619Y-102242904D02*
X134374000Y-102195285D01*
X134326380Y-102100047D01*
X134326380Y-101861952D01*
X134374000Y-101766714D01*
X134421619Y-101719095D01*
X134516857Y-101671476D01*
X134612095Y-101671476D01*
X134754952Y-101719095D01*
X135326380Y-102290523D01*
X135326380Y-101671476D01*
X134421619Y-101290523D02*
X134374000Y-101242904D01*
X134326380Y-101147666D01*
X134326380Y-100909571D01*
X134374000Y-100814333D01*
X134421619Y-100766714D01*
X134516857Y-100719095D01*
X134612095Y-100719095D01*
X134754952Y-100766714D01*
X135326380Y-101338142D01*
X135326380Y-100719095D01*
G04 #@! TO.C,R24*
X125166380Y-88399857D02*
X124690190Y-88733190D01*
X125166380Y-88971285D02*
X124166380Y-88971285D01*
X124166380Y-88590333D01*
X124214000Y-88495095D01*
X124261619Y-88447476D01*
X124356857Y-88399857D01*
X124499714Y-88399857D01*
X124594952Y-88447476D01*
X124642571Y-88495095D01*
X124690190Y-88590333D01*
X124690190Y-88971285D01*
X124261619Y-88018904D02*
X124214000Y-87971285D01*
X124166380Y-87876047D01*
X124166380Y-87637952D01*
X124214000Y-87542714D01*
X124261619Y-87495095D01*
X124356857Y-87447476D01*
X124452095Y-87447476D01*
X124594952Y-87495095D01*
X125166380Y-88066523D01*
X125166380Y-87447476D01*
X124499714Y-86590333D02*
X125166380Y-86590333D01*
X124118761Y-86828428D02*
X124833047Y-87066523D01*
X124833047Y-86447476D01*
G04 #@! TO.C,R18*
X165044380Y-79128857D02*
X164568190Y-79462190D01*
X165044380Y-79700285D02*
X164044380Y-79700285D01*
X164044380Y-79319333D01*
X164092000Y-79224095D01*
X164139619Y-79176476D01*
X164234857Y-79128857D01*
X164377714Y-79128857D01*
X164472952Y-79176476D01*
X164520571Y-79224095D01*
X164568190Y-79319333D01*
X164568190Y-79700285D01*
X165044380Y-78176476D02*
X165044380Y-78747904D01*
X165044380Y-78462190D02*
X164044380Y-78462190D01*
X164187238Y-78557428D01*
X164282476Y-78652666D01*
X164330095Y-78747904D01*
X164472952Y-77605047D02*
X164425333Y-77700285D01*
X164377714Y-77747904D01*
X164282476Y-77795523D01*
X164234857Y-77795523D01*
X164139619Y-77747904D01*
X164092000Y-77700285D01*
X164044380Y-77605047D01*
X164044380Y-77414571D01*
X164092000Y-77319333D01*
X164139619Y-77271714D01*
X164234857Y-77224095D01*
X164282476Y-77224095D01*
X164377714Y-77271714D01*
X164425333Y-77319333D01*
X164472952Y-77414571D01*
X164472952Y-77605047D01*
X164520571Y-77700285D01*
X164568190Y-77747904D01*
X164663428Y-77795523D01*
X164853904Y-77795523D01*
X164949142Y-77747904D01*
X164996761Y-77700285D01*
X165044380Y-77605047D01*
X165044380Y-77414571D01*
X164996761Y-77319333D01*
X164949142Y-77271714D01*
X164853904Y-77224095D01*
X164663428Y-77224095D01*
X164568190Y-77271714D01*
X164520571Y-77319333D01*
X164472952Y-77414571D01*
G04 #@! TO.C,R16*
X149598142Y-75382380D02*
X149264809Y-74906190D01*
X149026714Y-75382380D02*
X149026714Y-74382380D01*
X149407666Y-74382380D01*
X149502904Y-74430000D01*
X149550523Y-74477619D01*
X149598142Y-74572857D01*
X149598142Y-74715714D01*
X149550523Y-74810952D01*
X149502904Y-74858571D01*
X149407666Y-74906190D01*
X149026714Y-74906190D01*
X150550523Y-75382380D02*
X149979095Y-75382380D01*
X150264809Y-75382380D02*
X150264809Y-74382380D01*
X150169571Y-74525238D01*
X150074333Y-74620476D01*
X149979095Y-74668095D01*
X151407666Y-74382380D02*
X151217190Y-74382380D01*
X151121952Y-74430000D01*
X151074333Y-74477619D01*
X150979095Y-74620476D01*
X150931476Y-74810952D01*
X150931476Y-75191904D01*
X150979095Y-75287142D01*
X151026714Y-75334761D01*
X151121952Y-75382380D01*
X151312428Y-75382380D01*
X151407666Y-75334761D01*
X151455285Y-75287142D01*
X151502904Y-75191904D01*
X151502904Y-74953809D01*
X151455285Y-74858571D01*
X151407666Y-74810952D01*
X151312428Y-74763333D01*
X151121952Y-74763333D01*
X151026714Y-74810952D01*
X150979095Y-74858571D01*
X150931476Y-74953809D01*
G04 #@! TO.C,R15*
X157091142Y-72461380D02*
X156757809Y-71985190D01*
X156519714Y-72461380D02*
X156519714Y-71461380D01*
X156900666Y-71461380D01*
X156995904Y-71509000D01*
X157043523Y-71556619D01*
X157091142Y-71651857D01*
X157091142Y-71794714D01*
X157043523Y-71889952D01*
X156995904Y-71937571D01*
X156900666Y-71985190D01*
X156519714Y-71985190D01*
X158043523Y-72461380D02*
X157472095Y-72461380D01*
X157757809Y-72461380D02*
X157757809Y-71461380D01*
X157662571Y-71604238D01*
X157567333Y-71699476D01*
X157472095Y-71747095D01*
X158948285Y-71461380D02*
X158472095Y-71461380D01*
X158424476Y-71937571D01*
X158472095Y-71889952D01*
X158567333Y-71842333D01*
X158805428Y-71842333D01*
X158900666Y-71889952D01*
X158948285Y-71937571D01*
X158995904Y-72032809D01*
X158995904Y-72270904D01*
X158948285Y-72366142D01*
X158900666Y-72413761D01*
X158805428Y-72461380D01*
X158567333Y-72461380D01*
X158472095Y-72413761D01*
X158424476Y-72366142D01*
G04 #@! TO.C,R23*
X135327380Y-98042857D02*
X134851190Y-98376190D01*
X135327380Y-98614285D02*
X134327380Y-98614285D01*
X134327380Y-98233333D01*
X134375000Y-98138095D01*
X134422619Y-98090476D01*
X134517857Y-98042857D01*
X134660714Y-98042857D01*
X134755952Y-98090476D01*
X134803571Y-98138095D01*
X134851190Y-98233333D01*
X134851190Y-98614285D01*
X134422619Y-97661904D02*
X134375000Y-97614285D01*
X134327380Y-97519047D01*
X134327380Y-97280952D01*
X134375000Y-97185714D01*
X134422619Y-97138095D01*
X134517857Y-97090476D01*
X134613095Y-97090476D01*
X134755952Y-97138095D01*
X135327380Y-97709523D01*
X135327380Y-97090476D01*
X134327380Y-96757142D02*
X134327380Y-96138095D01*
X134708333Y-96471428D01*
X134708333Y-96328571D01*
X134755952Y-96233333D01*
X134803571Y-96185714D01*
X134898809Y-96138095D01*
X135136904Y-96138095D01*
X135232142Y-96185714D01*
X135279761Y-96233333D01*
X135327380Y-96328571D01*
X135327380Y-96614285D01*
X135279761Y-96709523D01*
X135232142Y-96757142D01*
G04 #@! TO.C,R7*
X160726380Y-84240666D02*
X160250190Y-84574000D01*
X160726380Y-84812095D02*
X159726380Y-84812095D01*
X159726380Y-84431142D01*
X159774000Y-84335904D01*
X159821619Y-84288285D01*
X159916857Y-84240666D01*
X160059714Y-84240666D01*
X160154952Y-84288285D01*
X160202571Y-84335904D01*
X160250190Y-84431142D01*
X160250190Y-84812095D01*
X159726380Y-83907333D02*
X159726380Y-83240666D01*
X160726380Y-83669238D01*
G04 #@! TO.C,R10*
X149598142Y-82240380D02*
X149264809Y-81764190D01*
X149026714Y-82240380D02*
X149026714Y-81240380D01*
X149407666Y-81240380D01*
X149502904Y-81288000D01*
X149550523Y-81335619D01*
X149598142Y-81430857D01*
X149598142Y-81573714D01*
X149550523Y-81668952D01*
X149502904Y-81716571D01*
X149407666Y-81764190D01*
X149026714Y-81764190D01*
X150550523Y-82240380D02*
X149979095Y-82240380D01*
X150264809Y-82240380D02*
X150264809Y-81240380D01*
X150169571Y-81383238D01*
X150074333Y-81478476D01*
X149979095Y-81526095D01*
X151169571Y-81240380D02*
X151264809Y-81240380D01*
X151360047Y-81288000D01*
X151407666Y-81335619D01*
X151455285Y-81430857D01*
X151502904Y-81621333D01*
X151502904Y-81859428D01*
X151455285Y-82049904D01*
X151407666Y-82145142D01*
X151360047Y-82192761D01*
X151264809Y-82240380D01*
X151169571Y-82240380D01*
X151074333Y-82192761D01*
X151026714Y-82145142D01*
X150979095Y-82049904D01*
X150931476Y-81859428D01*
X150931476Y-81621333D01*
X150979095Y-81430857D01*
X151026714Y-81335619D01*
X151074333Y-81288000D01*
X151169571Y-81240380D01*
G04 #@! TO.C,R6*
X151455380Y-86526666D02*
X150979190Y-86860000D01*
X151455380Y-87098095D02*
X150455380Y-87098095D01*
X150455380Y-86717142D01*
X150503000Y-86621904D01*
X150550619Y-86574285D01*
X150645857Y-86526666D01*
X150788714Y-86526666D01*
X150883952Y-86574285D01*
X150931571Y-86621904D01*
X150979190Y-86717142D01*
X150979190Y-87098095D01*
X150455380Y-85669523D02*
X150455380Y-85860000D01*
X150503000Y-85955238D01*
X150550619Y-86002857D01*
X150693476Y-86098095D01*
X150883952Y-86145714D01*
X151264904Y-86145714D01*
X151360142Y-86098095D01*
X151407761Y-86050476D01*
X151455380Y-85955238D01*
X151455380Y-85764761D01*
X151407761Y-85669523D01*
X151360142Y-85621904D01*
X151264904Y-85574285D01*
X151026809Y-85574285D01*
X150931571Y-85621904D01*
X150883952Y-85669523D01*
X150836333Y-85764761D01*
X150836333Y-85955238D01*
X150883952Y-86050476D01*
X150931571Y-86098095D01*
X151026809Y-86145714D01*
G04 #@! TO.C,R5*
X160726380Y-86399666D02*
X160250190Y-86733000D01*
X160726380Y-86971095D02*
X159726380Y-86971095D01*
X159726380Y-86590142D01*
X159774000Y-86494904D01*
X159821619Y-86447285D01*
X159916857Y-86399666D01*
X160059714Y-86399666D01*
X160154952Y-86447285D01*
X160202571Y-86494904D01*
X160250190Y-86590142D01*
X160250190Y-86971095D01*
X159726380Y-85494904D02*
X159726380Y-85971095D01*
X160202571Y-86018714D01*
X160154952Y-85971095D01*
X160107333Y-85875857D01*
X160107333Y-85637761D01*
X160154952Y-85542523D01*
X160202571Y-85494904D01*
X160297809Y-85447285D01*
X160535904Y-85447285D01*
X160631142Y-85494904D01*
X160678761Y-85542523D01*
X160726380Y-85637761D01*
X160726380Y-85875857D01*
X160678761Y-85971095D01*
X160631142Y-86018714D01*
G04 #@! TO.C,R13*
X157091142Y-73731380D02*
X156757809Y-73255190D01*
X156519714Y-73731380D02*
X156519714Y-72731380D01*
X156900666Y-72731380D01*
X156995904Y-72779000D01*
X157043523Y-72826619D01*
X157091142Y-72921857D01*
X157091142Y-73064714D01*
X157043523Y-73159952D01*
X156995904Y-73207571D01*
X156900666Y-73255190D01*
X156519714Y-73255190D01*
X158043523Y-73731380D02*
X157472095Y-73731380D01*
X157757809Y-73731380D02*
X157757809Y-72731380D01*
X157662571Y-72874238D01*
X157567333Y-72969476D01*
X157472095Y-73017095D01*
X158376857Y-72731380D02*
X158995904Y-72731380D01*
X158662571Y-73112333D01*
X158805428Y-73112333D01*
X158900666Y-73159952D01*
X158948285Y-73207571D01*
X158995904Y-73302809D01*
X158995904Y-73540904D01*
X158948285Y-73636142D01*
X158900666Y-73683761D01*
X158805428Y-73731380D01*
X158519714Y-73731380D01*
X158424476Y-73683761D01*
X158376857Y-73636142D01*
G04 #@! TO.C,RFCON1*
X108402380Y-68817857D02*
X107926190Y-69151190D01*
X108402380Y-69389285D02*
X107402380Y-69389285D01*
X107402380Y-69008333D01*
X107450000Y-68913095D01*
X107497619Y-68865476D01*
X107592857Y-68817857D01*
X107735714Y-68817857D01*
X107830952Y-68865476D01*
X107878571Y-68913095D01*
X107926190Y-69008333D01*
X107926190Y-69389285D01*
X107878571Y-68055952D02*
X107878571Y-68389285D01*
X108402380Y-68389285D02*
X107402380Y-68389285D01*
X107402380Y-67913095D01*
X108307142Y-66960714D02*
X108354761Y-67008333D01*
X108402380Y-67151190D01*
X108402380Y-67246428D01*
X108354761Y-67389285D01*
X108259523Y-67484523D01*
X108164285Y-67532142D01*
X107973809Y-67579761D01*
X107830952Y-67579761D01*
X107640476Y-67532142D01*
X107545238Y-67484523D01*
X107450000Y-67389285D01*
X107402380Y-67246428D01*
X107402380Y-67151190D01*
X107450000Y-67008333D01*
X107497619Y-66960714D01*
X107402380Y-66341666D02*
X107402380Y-66151190D01*
X107450000Y-66055952D01*
X107545238Y-65960714D01*
X107735714Y-65913095D01*
X108069047Y-65913095D01*
X108259523Y-65960714D01*
X108354761Y-66055952D01*
X108402380Y-66151190D01*
X108402380Y-66341666D01*
X108354761Y-66436904D01*
X108259523Y-66532142D01*
X108069047Y-66579761D01*
X107735714Y-66579761D01*
X107545238Y-66532142D01*
X107450000Y-66436904D01*
X107402380Y-66341666D01*
X108402380Y-65484523D02*
X107402380Y-65484523D01*
X108402380Y-64913095D01*
X107402380Y-64913095D01*
X108402380Y-63913095D02*
X108402380Y-64484523D01*
X108402380Y-64198809D02*
X107402380Y-64198809D01*
X107545238Y-64294047D01*
X107640476Y-64389285D01*
X107688095Y-64484523D01*
G04 #@! TO.C,R1*
X160726380Y-90971666D02*
X160250190Y-91305000D01*
X160726380Y-91543095D02*
X159726380Y-91543095D01*
X159726380Y-91162142D01*
X159774000Y-91066904D01*
X159821619Y-91019285D01*
X159916857Y-90971666D01*
X160059714Y-90971666D01*
X160154952Y-91019285D01*
X160202571Y-91066904D01*
X160250190Y-91162142D01*
X160250190Y-91543095D01*
X160726380Y-90019285D02*
X160726380Y-90590714D01*
X160726380Y-90305000D02*
X159726380Y-90305000D01*
X159869238Y-90400238D01*
X159964476Y-90495476D01*
X160012095Y-90590714D01*
G04 #@! TO.C,R3*
X160726380Y-88812666D02*
X160250190Y-89146000D01*
X160726380Y-89384095D02*
X159726380Y-89384095D01*
X159726380Y-89003142D01*
X159774000Y-88907904D01*
X159821619Y-88860285D01*
X159916857Y-88812666D01*
X160059714Y-88812666D01*
X160154952Y-88860285D01*
X160202571Y-88907904D01*
X160250190Y-89003142D01*
X160250190Y-89384095D01*
X159726380Y-88479333D02*
X159726380Y-87860285D01*
X160107333Y-88193619D01*
X160107333Y-88050761D01*
X160154952Y-87955523D01*
X160202571Y-87907904D01*
X160297809Y-87860285D01*
X160535904Y-87860285D01*
X160631142Y-87907904D01*
X160678761Y-87955523D01*
X160726380Y-88050761D01*
X160726380Y-88336476D01*
X160678761Y-88431714D01*
X160631142Y-88479333D01*
G04 #@! TO.C,R8*
X151455380Y-84240666D02*
X150979190Y-84574000D01*
X151455380Y-84812095D02*
X150455380Y-84812095D01*
X150455380Y-84431142D01*
X150503000Y-84335904D01*
X150550619Y-84288285D01*
X150645857Y-84240666D01*
X150788714Y-84240666D01*
X150883952Y-84288285D01*
X150931571Y-84335904D01*
X150979190Y-84431142D01*
X150979190Y-84812095D01*
X150883952Y-83669238D02*
X150836333Y-83764476D01*
X150788714Y-83812095D01*
X150693476Y-83859714D01*
X150645857Y-83859714D01*
X150550619Y-83812095D01*
X150503000Y-83764476D01*
X150455380Y-83669238D01*
X150455380Y-83478761D01*
X150503000Y-83383523D01*
X150550619Y-83335904D01*
X150645857Y-83288285D01*
X150693476Y-83288285D01*
X150788714Y-83335904D01*
X150836333Y-83383523D01*
X150883952Y-83478761D01*
X150883952Y-83669238D01*
X150931571Y-83764476D01*
X150979190Y-83812095D01*
X151074428Y-83859714D01*
X151264904Y-83859714D01*
X151360142Y-83812095D01*
X151407761Y-83764476D01*
X151455380Y-83669238D01*
X151455380Y-83478761D01*
X151407761Y-83383523D01*
X151360142Y-83335904D01*
X151264904Y-83288285D01*
X151074428Y-83288285D01*
X150979190Y-83335904D01*
X150931571Y-83383523D01*
X150883952Y-83478761D01*
G04 #@! TO.C,R11*
X160139142Y-80081380D02*
X159805809Y-79605190D01*
X159567714Y-80081380D02*
X159567714Y-79081380D01*
X159948666Y-79081380D01*
X160043904Y-79129000D01*
X160091523Y-79176619D01*
X160139142Y-79271857D01*
X160139142Y-79414714D01*
X160091523Y-79509952D01*
X160043904Y-79557571D01*
X159948666Y-79605190D01*
X159567714Y-79605190D01*
X161091523Y-80081380D02*
X160520095Y-80081380D01*
X160805809Y-80081380D02*
X160805809Y-79081380D01*
X160710571Y-79224238D01*
X160615333Y-79319476D01*
X160520095Y-79367095D01*
X162043904Y-80081380D02*
X161472476Y-80081380D01*
X161758190Y-80081380D02*
X161758190Y-79081380D01*
X161662952Y-79224238D01*
X161567714Y-79319476D01*
X161472476Y-79367095D01*
G04 #@! TO.C,R12*
X149598142Y-79954380D02*
X149264809Y-79478190D01*
X149026714Y-79954380D02*
X149026714Y-78954380D01*
X149407666Y-78954380D01*
X149502904Y-79002000D01*
X149550523Y-79049619D01*
X149598142Y-79144857D01*
X149598142Y-79287714D01*
X149550523Y-79382952D01*
X149502904Y-79430571D01*
X149407666Y-79478190D01*
X149026714Y-79478190D01*
X150550523Y-79954380D02*
X149979095Y-79954380D01*
X150264809Y-79954380D02*
X150264809Y-78954380D01*
X150169571Y-79097238D01*
X150074333Y-79192476D01*
X149979095Y-79240095D01*
X150931476Y-79049619D02*
X150979095Y-79002000D01*
X151074333Y-78954380D01*
X151312428Y-78954380D01*
X151407666Y-79002000D01*
X151455285Y-79049619D01*
X151502904Y-79144857D01*
X151502904Y-79240095D01*
X151455285Y-79382952D01*
X150883857Y-79954380D01*
X151502904Y-79954380D01*
G04 #@! TO.C,RFCON2*
X108402380Y-101075857D02*
X107926190Y-101409190D01*
X108402380Y-101647285D02*
X107402380Y-101647285D01*
X107402380Y-101266333D01*
X107450000Y-101171095D01*
X107497619Y-101123476D01*
X107592857Y-101075857D01*
X107735714Y-101075857D01*
X107830952Y-101123476D01*
X107878571Y-101171095D01*
X107926190Y-101266333D01*
X107926190Y-101647285D01*
X107878571Y-100313952D02*
X107878571Y-100647285D01*
X108402380Y-100647285D02*
X107402380Y-100647285D01*
X107402380Y-100171095D01*
X108307142Y-99218714D02*
X108354761Y-99266333D01*
X108402380Y-99409190D01*
X108402380Y-99504428D01*
X108354761Y-99647285D01*
X108259523Y-99742523D01*
X108164285Y-99790142D01*
X107973809Y-99837761D01*
X107830952Y-99837761D01*
X107640476Y-99790142D01*
X107545238Y-99742523D01*
X107450000Y-99647285D01*
X107402380Y-99504428D01*
X107402380Y-99409190D01*
X107450000Y-99266333D01*
X107497619Y-99218714D01*
X107402380Y-98599666D02*
X107402380Y-98409190D01*
X107450000Y-98313952D01*
X107545238Y-98218714D01*
X107735714Y-98171095D01*
X108069047Y-98171095D01*
X108259523Y-98218714D01*
X108354761Y-98313952D01*
X108402380Y-98409190D01*
X108402380Y-98599666D01*
X108354761Y-98694904D01*
X108259523Y-98790142D01*
X108069047Y-98837761D01*
X107735714Y-98837761D01*
X107545238Y-98790142D01*
X107450000Y-98694904D01*
X107402380Y-98599666D01*
X108402380Y-97742523D02*
X107402380Y-97742523D01*
X108402380Y-97171095D01*
X107402380Y-97171095D01*
X107497619Y-96742523D02*
X107450000Y-96694904D01*
X107402380Y-96599666D01*
X107402380Y-96361571D01*
X107450000Y-96266333D01*
X107497619Y-96218714D01*
X107592857Y-96171095D01*
X107688095Y-96171095D01*
X107830952Y-96218714D01*
X108402380Y-96790142D01*
X108402380Y-96171095D01*
G04 #@! TO.C,R2*
X151455380Y-91098666D02*
X150979190Y-91432000D01*
X151455380Y-91670095D02*
X150455380Y-91670095D01*
X150455380Y-91289142D01*
X150503000Y-91193904D01*
X150550619Y-91146285D01*
X150645857Y-91098666D01*
X150788714Y-91098666D01*
X150883952Y-91146285D01*
X150931571Y-91193904D01*
X150979190Y-91289142D01*
X150979190Y-91670095D01*
X150550619Y-90717714D02*
X150503000Y-90670095D01*
X150455380Y-90574857D01*
X150455380Y-90336761D01*
X150503000Y-90241523D01*
X150550619Y-90193904D01*
X150645857Y-90146285D01*
X150741095Y-90146285D01*
X150883952Y-90193904D01*
X151455380Y-90765333D01*
X151455380Y-90146285D01*
G04 #@! TO.C,R4*
X151455380Y-88812666D02*
X150979190Y-89146000D01*
X151455380Y-89384095D02*
X150455380Y-89384095D01*
X150455380Y-89003142D01*
X150503000Y-88907904D01*
X150550619Y-88860285D01*
X150645857Y-88812666D01*
X150788714Y-88812666D01*
X150883952Y-88860285D01*
X150931571Y-88907904D01*
X150979190Y-89003142D01*
X150979190Y-89384095D01*
X150788714Y-87955523D02*
X151455380Y-87955523D01*
X150407761Y-88193619D02*
X151122047Y-88431714D01*
X151122047Y-87812666D01*
G04 #@! TO.C,R9*
X160726380Y-81827666D02*
X160250190Y-82161000D01*
X160726380Y-82399095D02*
X159726380Y-82399095D01*
X159726380Y-82018142D01*
X159774000Y-81922904D01*
X159821619Y-81875285D01*
X159916857Y-81827666D01*
X160059714Y-81827666D01*
X160154952Y-81875285D01*
X160202571Y-81922904D01*
X160250190Y-82018142D01*
X160250190Y-82399095D01*
X160726380Y-81351476D02*
X160726380Y-81161000D01*
X160678761Y-81065761D01*
X160631142Y-81018142D01*
X160488285Y-80922904D01*
X160297809Y-80875285D01*
X159916857Y-80875285D01*
X159821619Y-80922904D01*
X159774000Y-80970523D01*
X159726380Y-81065761D01*
X159726380Y-81256238D01*
X159774000Y-81351476D01*
X159821619Y-81399095D01*
X159916857Y-81446714D01*
X160154952Y-81446714D01*
X160250190Y-81399095D01*
X160297809Y-81351476D01*
X160345428Y-81256238D01*
X160345428Y-81065761D01*
X160297809Y-80970523D01*
X160250190Y-80922904D01*
X160154952Y-80875285D01*
G04 #@! TO.C,JTAG1*
X140724142Y-111593380D02*
X140724142Y-112307666D01*
X140676523Y-112450523D01*
X140581285Y-112545761D01*
X140438428Y-112593380D01*
X140343190Y-112593380D01*
X141057476Y-111593380D02*
X141628904Y-111593380D01*
X141343190Y-112593380D02*
X141343190Y-111593380D01*
X141914619Y-112307666D02*
X142390809Y-112307666D01*
X141819380Y-112593380D02*
X142152714Y-111593380D01*
X142486047Y-112593380D01*
X143343190Y-111641000D02*
X143247952Y-111593380D01*
X143105095Y-111593380D01*
X142962238Y-111641000D01*
X142867000Y-111736238D01*
X142819380Y-111831476D01*
X142771761Y-112021952D01*
X142771761Y-112164809D01*
X142819380Y-112355285D01*
X142867000Y-112450523D01*
X142962238Y-112545761D01*
X143105095Y-112593380D01*
X143200333Y-112593380D01*
X143343190Y-112545761D01*
X143390809Y-112498142D01*
X143390809Y-112164809D01*
X143200333Y-112164809D01*
X144343190Y-112593380D02*
X143771761Y-112593380D01*
X144057476Y-112593380D02*
X144057476Y-111593380D01*
X143962238Y-111736238D01*
X143867000Y-111831476D01*
X143771761Y-111879095D01*
G04 #@! TO.C,L1*
X149677380Y-103925666D02*
X149677380Y-104401857D01*
X148677380Y-104401857D01*
X149677380Y-103068523D02*
X149677380Y-103639952D01*
X149677380Y-103354238D02*
X148677380Y-103354238D01*
X148820238Y-103449476D01*
X148915476Y-103544714D01*
X148963095Y-103639952D01*
G04 #@! TO.C,L3*
X150820380Y-108751666D02*
X150820380Y-109227857D01*
X149820380Y-109227857D01*
X149820380Y-108513571D02*
X149820380Y-107894523D01*
X150201333Y-108227857D01*
X150201333Y-108085000D01*
X150248952Y-107989761D01*
X150296571Y-107942142D01*
X150391809Y-107894523D01*
X150629904Y-107894523D01*
X150725142Y-107942142D01*
X150772761Y-107989761D01*
X150820380Y-108085000D01*
X150820380Y-108370714D01*
X150772761Y-108465952D01*
X150725142Y-108513571D01*
G04 #@! TO.C,REG1*
X130071952Y-114117380D02*
X129738619Y-113641190D01*
X129500523Y-114117380D02*
X129500523Y-113117380D01*
X129881476Y-113117380D01*
X129976714Y-113165000D01*
X130024333Y-113212619D01*
X130071952Y-113307857D01*
X130071952Y-113450714D01*
X130024333Y-113545952D01*
X129976714Y-113593571D01*
X129881476Y-113641190D01*
X129500523Y-113641190D01*
X130500523Y-113593571D02*
X130833857Y-113593571D01*
X130976714Y-114117380D02*
X130500523Y-114117380D01*
X130500523Y-113117380D01*
X130976714Y-113117380D01*
X131929095Y-113165000D02*
X131833857Y-113117380D01*
X131691000Y-113117380D01*
X131548142Y-113165000D01*
X131452904Y-113260238D01*
X131405285Y-113355476D01*
X131357666Y-113545952D01*
X131357666Y-113688809D01*
X131405285Y-113879285D01*
X131452904Y-113974523D01*
X131548142Y-114069761D01*
X131691000Y-114117380D01*
X131786238Y-114117380D01*
X131929095Y-114069761D01*
X131976714Y-114022142D01*
X131976714Y-113688809D01*
X131786238Y-113688809D01*
X132929095Y-114117380D02*
X132357666Y-114117380D01*
X132643380Y-114117380D02*
X132643380Y-113117380D01*
X132548142Y-113260238D01*
X132452904Y-113355476D01*
X132357666Y-113403095D01*
G04 #@! TO.C,REG2*
X109370952Y-114172380D02*
X109037619Y-113696190D01*
X108799523Y-114172380D02*
X108799523Y-113172380D01*
X109180476Y-113172380D01*
X109275714Y-113220000D01*
X109323333Y-113267619D01*
X109370952Y-113362857D01*
X109370952Y-113505714D01*
X109323333Y-113600952D01*
X109275714Y-113648571D01*
X109180476Y-113696190D01*
X108799523Y-113696190D01*
X109799523Y-113648571D02*
X110132857Y-113648571D01*
X110275714Y-114172380D02*
X109799523Y-114172380D01*
X109799523Y-113172380D01*
X110275714Y-113172380D01*
X111228095Y-113220000D02*
X111132857Y-113172380D01*
X110990000Y-113172380D01*
X110847142Y-113220000D01*
X110751904Y-113315238D01*
X110704285Y-113410476D01*
X110656666Y-113600952D01*
X110656666Y-113743809D01*
X110704285Y-113934285D01*
X110751904Y-114029523D01*
X110847142Y-114124761D01*
X110990000Y-114172380D01*
X111085238Y-114172380D01*
X111228095Y-114124761D01*
X111275714Y-114077142D01*
X111275714Y-113743809D01*
X111085238Y-113743809D01*
X111656666Y-113267619D02*
X111704285Y-113220000D01*
X111799523Y-113172380D01*
X112037619Y-113172380D01*
X112132857Y-113220000D01*
X112180476Y-113267619D01*
X112228095Y-113362857D01*
X112228095Y-113458095D01*
X112180476Y-113600952D01*
X111609047Y-114172380D01*
X112228095Y-114172380D01*
G04 #@! TO.C,OSC1*
X147026380Y-103528619D02*
X147026380Y-103338142D01*
X147074000Y-103242904D01*
X147169238Y-103147666D01*
X147359714Y-103100047D01*
X147693047Y-103100047D01*
X147883523Y-103147666D01*
X147978761Y-103242904D01*
X148026380Y-103338142D01*
X148026380Y-103528619D01*
X147978761Y-103623857D01*
X147883523Y-103719095D01*
X147693047Y-103766714D01*
X147359714Y-103766714D01*
X147169238Y-103719095D01*
X147074000Y-103623857D01*
X147026380Y-103528619D01*
X147978761Y-102719095D02*
X148026380Y-102576238D01*
X148026380Y-102338142D01*
X147978761Y-102242904D01*
X147931142Y-102195285D01*
X147835904Y-102147666D01*
X147740666Y-102147666D01*
X147645428Y-102195285D01*
X147597809Y-102242904D01*
X147550190Y-102338142D01*
X147502571Y-102528619D01*
X147454952Y-102623857D01*
X147407333Y-102671476D01*
X147312095Y-102719095D01*
X147216857Y-102719095D01*
X147121619Y-102671476D01*
X147074000Y-102623857D01*
X147026380Y-102528619D01*
X147026380Y-102290523D01*
X147074000Y-102147666D01*
X147931142Y-101147666D02*
X147978761Y-101195285D01*
X148026380Y-101338142D01*
X148026380Y-101433380D01*
X147978761Y-101576238D01*
X147883523Y-101671476D01*
X147788285Y-101719095D01*
X147597809Y-101766714D01*
X147454952Y-101766714D01*
X147264476Y-101719095D01*
X147169238Y-101671476D01*
X147074000Y-101576238D01*
X147026380Y-101433380D01*
X147026380Y-101338142D01*
X147074000Y-101195285D01*
X147121619Y-101147666D01*
X148026380Y-100195285D02*
X148026380Y-100766714D01*
X148026380Y-100481000D02*
X147026380Y-100481000D01*
X147169238Y-100576238D01*
X147264476Y-100671476D01*
X147312095Y-100766714D01*
G04 #@! TO.C,L2*
X152217380Y-103925666D02*
X152217380Y-104401857D01*
X151217380Y-104401857D01*
X151312619Y-103639952D02*
X151265000Y-103592333D01*
X151217380Y-103497095D01*
X151217380Y-103259000D01*
X151265000Y-103163761D01*
X151312619Y-103116142D01*
X151407857Y-103068523D01*
X151503095Y-103068523D01*
X151645952Y-103116142D01*
X152217380Y-103687571D01*
X152217380Y-103068523D01*
G04 #@! TO.C,R38*
X117164380Y-89161857D02*
X116688190Y-89495190D01*
X117164380Y-89733285D02*
X116164380Y-89733285D01*
X116164380Y-89352333D01*
X116212000Y-89257095D01*
X116259619Y-89209476D01*
X116354857Y-89161857D01*
X116497714Y-89161857D01*
X116592952Y-89209476D01*
X116640571Y-89257095D01*
X116688190Y-89352333D01*
X116688190Y-89733285D01*
X116164380Y-88828523D02*
X116164380Y-88209476D01*
X116545333Y-88542809D01*
X116545333Y-88399952D01*
X116592952Y-88304714D01*
X116640571Y-88257095D01*
X116735809Y-88209476D01*
X116973904Y-88209476D01*
X117069142Y-88257095D01*
X117116761Y-88304714D01*
X117164380Y-88399952D01*
X117164380Y-88685666D01*
X117116761Y-88780904D01*
X117069142Y-88828523D01*
X116592952Y-87638047D02*
X116545333Y-87733285D01*
X116497714Y-87780904D01*
X116402476Y-87828523D01*
X116354857Y-87828523D01*
X116259619Y-87780904D01*
X116212000Y-87733285D01*
X116164380Y-87638047D01*
X116164380Y-87447571D01*
X116212000Y-87352333D01*
X116259619Y-87304714D01*
X116354857Y-87257095D01*
X116402476Y-87257095D01*
X116497714Y-87304714D01*
X116545333Y-87352333D01*
X116592952Y-87447571D01*
X116592952Y-87638047D01*
X116640571Y-87733285D01*
X116688190Y-87780904D01*
X116783428Y-87828523D01*
X116973904Y-87828523D01*
X117069142Y-87780904D01*
X117116761Y-87733285D01*
X117164380Y-87638047D01*
X117164380Y-87447571D01*
X117116761Y-87352333D01*
X117069142Y-87304714D01*
X116973904Y-87257095D01*
X116783428Y-87257095D01*
X116688190Y-87304714D01*
X116640571Y-87352333D01*
X116592952Y-87447571D01*
G04 #@! TO.C,RFCONC1*
X123642380Y-69571857D02*
X123166190Y-69905190D01*
X123642380Y-70143285D02*
X122642380Y-70143285D01*
X122642380Y-69762333D01*
X122690000Y-69667095D01*
X122737619Y-69619476D01*
X122832857Y-69571857D01*
X122975714Y-69571857D01*
X123070952Y-69619476D01*
X123118571Y-69667095D01*
X123166190Y-69762333D01*
X123166190Y-70143285D01*
X123118571Y-68809952D02*
X123118571Y-69143285D01*
X123642380Y-69143285D02*
X122642380Y-69143285D01*
X122642380Y-68667095D01*
X123547142Y-67714714D02*
X123594761Y-67762333D01*
X123642380Y-67905190D01*
X123642380Y-68000428D01*
X123594761Y-68143285D01*
X123499523Y-68238523D01*
X123404285Y-68286142D01*
X123213809Y-68333761D01*
X123070952Y-68333761D01*
X122880476Y-68286142D01*
X122785238Y-68238523D01*
X122690000Y-68143285D01*
X122642380Y-68000428D01*
X122642380Y-67905190D01*
X122690000Y-67762333D01*
X122737619Y-67714714D01*
X122642380Y-67095666D02*
X122642380Y-66905190D01*
X122690000Y-66809952D01*
X122785238Y-66714714D01*
X122975714Y-66667095D01*
X123309047Y-66667095D01*
X123499523Y-66714714D01*
X123594761Y-66809952D01*
X123642380Y-66905190D01*
X123642380Y-67095666D01*
X123594761Y-67190904D01*
X123499523Y-67286142D01*
X123309047Y-67333761D01*
X122975714Y-67333761D01*
X122785238Y-67286142D01*
X122690000Y-67190904D01*
X122642380Y-67095666D01*
X123642380Y-66238523D02*
X122642380Y-66238523D01*
X123642380Y-65667095D01*
X122642380Y-65667095D01*
X123547142Y-64619476D02*
X123594761Y-64667095D01*
X123642380Y-64809952D01*
X123642380Y-64905190D01*
X123594761Y-65048047D01*
X123499523Y-65143285D01*
X123404285Y-65190904D01*
X123213809Y-65238523D01*
X123070952Y-65238523D01*
X122880476Y-65190904D01*
X122785238Y-65143285D01*
X122690000Y-65048047D01*
X122642380Y-64905190D01*
X122642380Y-64809952D01*
X122690000Y-64667095D01*
X122737619Y-64619476D01*
X123642380Y-63667095D02*
X123642380Y-64238523D01*
X123642380Y-63952809D02*
X122642380Y-63952809D01*
X122785238Y-64048047D01*
X122880476Y-64143285D01*
X122928095Y-64238523D01*
G04 #@! TO.C,RFCONC2*
X123642380Y-101702857D02*
X123166190Y-102036190D01*
X123642380Y-102274285D02*
X122642380Y-102274285D01*
X122642380Y-101893333D01*
X122690000Y-101798095D01*
X122737619Y-101750476D01*
X122832857Y-101702857D01*
X122975714Y-101702857D01*
X123070952Y-101750476D01*
X123118571Y-101798095D01*
X123166190Y-101893333D01*
X123166190Y-102274285D01*
X123118571Y-100940952D02*
X123118571Y-101274285D01*
X123642380Y-101274285D02*
X122642380Y-101274285D01*
X122642380Y-100798095D01*
X123547142Y-99845714D02*
X123594761Y-99893333D01*
X123642380Y-100036190D01*
X123642380Y-100131428D01*
X123594761Y-100274285D01*
X123499523Y-100369523D01*
X123404285Y-100417142D01*
X123213809Y-100464761D01*
X123070952Y-100464761D01*
X122880476Y-100417142D01*
X122785238Y-100369523D01*
X122690000Y-100274285D01*
X122642380Y-100131428D01*
X122642380Y-100036190D01*
X122690000Y-99893333D01*
X122737619Y-99845714D01*
X122642380Y-99226666D02*
X122642380Y-99036190D01*
X122690000Y-98940952D01*
X122785238Y-98845714D01*
X122975714Y-98798095D01*
X123309047Y-98798095D01*
X123499523Y-98845714D01*
X123594761Y-98940952D01*
X123642380Y-99036190D01*
X123642380Y-99226666D01*
X123594761Y-99321904D01*
X123499523Y-99417142D01*
X123309047Y-99464761D01*
X122975714Y-99464761D01*
X122785238Y-99417142D01*
X122690000Y-99321904D01*
X122642380Y-99226666D01*
X123642380Y-98369523D02*
X122642380Y-98369523D01*
X123642380Y-97798095D01*
X122642380Y-97798095D01*
X123547142Y-96750476D02*
X123594761Y-96798095D01*
X123642380Y-96940952D01*
X123642380Y-97036190D01*
X123594761Y-97179047D01*
X123499523Y-97274285D01*
X123404285Y-97321904D01*
X123213809Y-97369523D01*
X123070952Y-97369523D01*
X122880476Y-97321904D01*
X122785238Y-97274285D01*
X122690000Y-97179047D01*
X122642380Y-97036190D01*
X122642380Y-96940952D01*
X122690000Y-96798095D01*
X122737619Y-96750476D01*
X122737619Y-96369523D02*
X122690000Y-96321904D01*
X122642380Y-96226666D01*
X122642380Y-95988571D01*
X122690000Y-95893333D01*
X122737619Y-95845714D01*
X122832857Y-95798095D01*
X122928095Y-95798095D01*
X123070952Y-95845714D01*
X123642380Y-96417142D01*
X123642380Y-95798095D01*
G04 #@! TO.C,GND5*
X161575904Y-86495000D02*
X161480666Y-86447380D01*
X161337809Y-86447380D01*
X161194952Y-86495000D01*
X161099714Y-86590238D01*
X161052095Y-86685476D01*
X161004476Y-86875952D01*
X161004476Y-87018809D01*
X161052095Y-87209285D01*
X161099714Y-87304523D01*
X161194952Y-87399761D01*
X161337809Y-87447380D01*
X161433047Y-87447380D01*
X161575904Y-87399761D01*
X161623523Y-87352142D01*
X161623523Y-87018809D01*
X161433047Y-87018809D01*
X162052095Y-87447380D02*
X162052095Y-86447380D01*
X162623523Y-87447380D01*
X162623523Y-86447380D01*
X163099714Y-87447380D02*
X163099714Y-86447380D01*
X163337809Y-86447380D01*
X163480666Y-86495000D01*
X163575904Y-86590238D01*
X163623523Y-86685476D01*
X163671142Y-86875952D01*
X163671142Y-87018809D01*
X163623523Y-87209285D01*
X163575904Y-87304523D01*
X163480666Y-87399761D01*
X163337809Y-87447380D01*
X163099714Y-87447380D01*
X164575904Y-86447380D02*
X164099714Y-86447380D01*
X164052095Y-86923571D01*
X164099714Y-86875952D01*
X164194952Y-86828333D01*
X164433047Y-86828333D01*
X164528285Y-86875952D01*
X164575904Y-86923571D01*
X164623523Y-87018809D01*
X164623523Y-87256904D01*
X164575904Y-87352142D01*
X164528285Y-87399761D01*
X164433047Y-87447380D01*
X164194952Y-87447380D01*
X164099714Y-87399761D01*
X164052095Y-87352142D01*
G04 #@! TO.C,C28*
X111244142Y-75795142D02*
X111196523Y-75842761D01*
X111053666Y-75890380D01*
X110958428Y-75890380D01*
X110815571Y-75842761D01*
X110720333Y-75747523D01*
X110672714Y-75652285D01*
X110625095Y-75461809D01*
X110625095Y-75318952D01*
X110672714Y-75128476D01*
X110720333Y-75033238D01*
X110815571Y-74938000D01*
X110958428Y-74890380D01*
X111053666Y-74890380D01*
X111196523Y-74938000D01*
X111244142Y-74985619D01*
X111625095Y-74985619D02*
X111672714Y-74938000D01*
X111767952Y-74890380D01*
X112006047Y-74890380D01*
X112101285Y-74938000D01*
X112148904Y-74985619D01*
X112196523Y-75080857D01*
X112196523Y-75176095D01*
X112148904Y-75318952D01*
X111577476Y-75890380D01*
X112196523Y-75890380D01*
X112767952Y-75318952D02*
X112672714Y-75271333D01*
X112625095Y-75223714D01*
X112577476Y-75128476D01*
X112577476Y-75080857D01*
X112625095Y-74985619D01*
X112672714Y-74938000D01*
X112767952Y-74890380D01*
X112958428Y-74890380D01*
X113053666Y-74938000D01*
X113101285Y-74985619D01*
X113148904Y-75080857D01*
X113148904Y-75128476D01*
X113101285Y-75223714D01*
X113053666Y-75271333D01*
X112958428Y-75318952D01*
X112767952Y-75318952D01*
X112672714Y-75366571D01*
X112625095Y-75414190D01*
X112577476Y-75509428D01*
X112577476Y-75699904D01*
X112625095Y-75795142D01*
X112672714Y-75842761D01*
X112767952Y-75890380D01*
X112958428Y-75890380D01*
X113053666Y-75842761D01*
X113101285Y-75795142D01*
X113148904Y-75699904D01*
X113148904Y-75509428D01*
X113101285Y-75414190D01*
X113053666Y-75366571D01*
X112958428Y-75318952D01*
G04 #@! TO.C,R39*
X112593380Y-84462857D02*
X112117190Y-84796190D01*
X112593380Y-85034285D02*
X111593380Y-85034285D01*
X111593380Y-84653333D01*
X111641000Y-84558095D01*
X111688619Y-84510476D01*
X111783857Y-84462857D01*
X111926714Y-84462857D01*
X112021952Y-84510476D01*
X112069571Y-84558095D01*
X112117190Y-84653333D01*
X112117190Y-85034285D01*
X111593380Y-84129523D02*
X111593380Y-83510476D01*
X111974333Y-83843809D01*
X111974333Y-83700952D01*
X112021952Y-83605714D01*
X112069571Y-83558095D01*
X112164809Y-83510476D01*
X112402904Y-83510476D01*
X112498142Y-83558095D01*
X112545761Y-83605714D01*
X112593380Y-83700952D01*
X112593380Y-83986666D01*
X112545761Y-84081904D01*
X112498142Y-84129523D01*
X112593380Y-83034285D02*
X112593380Y-82843809D01*
X112545761Y-82748571D01*
X112498142Y-82700952D01*
X112355285Y-82605714D01*
X112164809Y-82558095D01*
X111783857Y-82558095D01*
X111688619Y-82605714D01*
X111641000Y-82653333D01*
X111593380Y-82748571D01*
X111593380Y-82939047D01*
X111641000Y-83034285D01*
X111688619Y-83081904D01*
X111783857Y-83129523D01*
X112021952Y-83129523D01*
X112117190Y-83081904D01*
X112164809Y-83034285D01*
X112212428Y-82939047D01*
X112212428Y-82748571D01*
X112164809Y-82653333D01*
X112117190Y-82605714D01*
X112021952Y-82558095D01*
G04 #@! TO.C,R40*
X112593380Y-80398857D02*
X112117190Y-80732190D01*
X112593380Y-80970285D02*
X111593380Y-80970285D01*
X111593380Y-80589333D01*
X111641000Y-80494095D01*
X111688619Y-80446476D01*
X111783857Y-80398857D01*
X111926714Y-80398857D01*
X112021952Y-80446476D01*
X112069571Y-80494095D01*
X112117190Y-80589333D01*
X112117190Y-80970285D01*
X111926714Y-79541714D02*
X112593380Y-79541714D01*
X111545761Y-79779809D02*
X112260047Y-80017904D01*
X112260047Y-79398857D01*
X111593380Y-78827428D02*
X111593380Y-78732190D01*
X111641000Y-78636952D01*
X111688619Y-78589333D01*
X111783857Y-78541714D01*
X111974333Y-78494095D01*
X112212428Y-78494095D01*
X112402904Y-78541714D01*
X112498142Y-78589333D01*
X112545761Y-78636952D01*
X112593380Y-78732190D01*
X112593380Y-78827428D01*
X112545761Y-78922666D01*
X112498142Y-78970285D01*
X112402904Y-79017904D01*
X112212428Y-79065523D01*
X111974333Y-79065523D01*
X111783857Y-79017904D01*
X111688619Y-78970285D01*
X111641000Y-78922666D01*
X111593380Y-78827428D01*
G04 #@! TO.C,J1*
X157171666Y-64349380D02*
X157171666Y-65063666D01*
X157124047Y-65206523D01*
X157028809Y-65301761D01*
X156885952Y-65349380D01*
X156790714Y-65349380D01*
X158171666Y-65349380D02*
X157600238Y-65349380D01*
X157885952Y-65349380D02*
X157885952Y-64349380D01*
X157790714Y-64492238D01*
X157695476Y-64587476D01*
X157600238Y-64635095D01*
G04 #@! TO.C,C8*
X128484333Y-96242142D02*
X128436714Y-96289761D01*
X128293857Y-96337380D01*
X128198619Y-96337380D01*
X128055761Y-96289761D01*
X127960523Y-96194523D01*
X127912904Y-96099285D01*
X127865285Y-95908809D01*
X127865285Y-95765952D01*
X127912904Y-95575476D01*
X127960523Y-95480238D01*
X128055761Y-95385000D01*
X128198619Y-95337380D01*
X128293857Y-95337380D01*
X128436714Y-95385000D01*
X128484333Y-95432619D01*
X129055761Y-95765952D02*
X128960523Y-95718333D01*
X128912904Y-95670714D01*
X128865285Y-95575476D01*
X128865285Y-95527857D01*
X128912904Y-95432619D01*
X128960523Y-95385000D01*
X129055761Y-95337380D01*
X129246238Y-95337380D01*
X129341476Y-95385000D01*
X129389095Y-95432619D01*
X129436714Y-95527857D01*
X129436714Y-95575476D01*
X129389095Y-95670714D01*
X129341476Y-95718333D01*
X129246238Y-95765952D01*
X129055761Y-95765952D01*
X128960523Y-95813571D01*
X128912904Y-95861190D01*
X128865285Y-95956428D01*
X128865285Y-96146904D01*
X128912904Y-96242142D01*
X128960523Y-96289761D01*
X129055761Y-96337380D01*
X129246238Y-96337380D01*
X129341476Y-96289761D01*
X129389095Y-96242142D01*
X129436714Y-96146904D01*
X129436714Y-95956428D01*
X129389095Y-95861190D01*
X129341476Y-95813571D01*
X129246238Y-95765952D01*
G04 #@! TO.C,JPLUM1*
X119975380Y-94916333D02*
X120689666Y-94916333D01*
X120832523Y-94963952D01*
X120927761Y-95059190D01*
X120975380Y-95202047D01*
X120975380Y-95297285D01*
X120975380Y-94440142D02*
X119975380Y-94440142D01*
X119975380Y-94059190D01*
X120023000Y-93963952D01*
X120070619Y-93916333D01*
X120165857Y-93868714D01*
X120308714Y-93868714D01*
X120403952Y-93916333D01*
X120451571Y-93963952D01*
X120499190Y-94059190D01*
X120499190Y-94440142D01*
X120975380Y-92963952D02*
X120975380Y-93440142D01*
X119975380Y-93440142D01*
X119975380Y-92630619D02*
X120784904Y-92630619D01*
X120880142Y-92583000D01*
X120927761Y-92535380D01*
X120975380Y-92440142D01*
X120975380Y-92249666D01*
X120927761Y-92154428D01*
X120880142Y-92106809D01*
X120784904Y-92059190D01*
X119975380Y-92059190D01*
X120975380Y-91583000D02*
X119975380Y-91583000D01*
X120689666Y-91249666D01*
X119975380Y-90916333D01*
X120975380Y-90916333D01*
X120975380Y-89916333D02*
X120975380Y-90487761D01*
X120975380Y-90202047D02*
X119975380Y-90202047D01*
X120118238Y-90297285D01*
X120213476Y-90392523D01*
X120261095Y-90487761D01*
G04 #@! TO.C,SW1*
X160678761Y-96329333D02*
X160726380Y-96186476D01*
X160726380Y-95948380D01*
X160678761Y-95853142D01*
X160631142Y-95805523D01*
X160535904Y-95757904D01*
X160440666Y-95757904D01*
X160345428Y-95805523D01*
X160297809Y-95853142D01*
X160250190Y-95948380D01*
X160202571Y-96138857D01*
X160154952Y-96234095D01*
X160107333Y-96281714D01*
X160012095Y-96329333D01*
X159916857Y-96329333D01*
X159821619Y-96281714D01*
X159774000Y-96234095D01*
X159726380Y-96138857D01*
X159726380Y-95900761D01*
X159774000Y-95757904D01*
X159726380Y-95424571D02*
X160726380Y-95186476D01*
X160012095Y-94996000D01*
X160726380Y-94805523D01*
X159726380Y-94567428D01*
X160726380Y-93662666D02*
X160726380Y-94234095D01*
X160726380Y-93948380D02*
X159726380Y-93948380D01*
X159869238Y-94043619D01*
X159964476Y-94138857D01*
X160012095Y-94234095D01*
G04 #@! TO.C,GND1*
X120300904Y-112530000D02*
X120205666Y-112482380D01*
X120062809Y-112482380D01*
X119919952Y-112530000D01*
X119824714Y-112625238D01*
X119777095Y-112720476D01*
X119729476Y-112910952D01*
X119729476Y-113053809D01*
X119777095Y-113244285D01*
X119824714Y-113339523D01*
X119919952Y-113434761D01*
X120062809Y-113482380D01*
X120158047Y-113482380D01*
X120300904Y-113434761D01*
X120348523Y-113387142D01*
X120348523Y-113053809D01*
X120158047Y-113053809D01*
X120777095Y-113482380D02*
X120777095Y-112482380D01*
X121348523Y-113482380D01*
X121348523Y-112482380D01*
X121824714Y-113482380D02*
X121824714Y-112482380D01*
X122062809Y-112482380D01*
X122205666Y-112530000D01*
X122300904Y-112625238D01*
X122348523Y-112720476D01*
X122396142Y-112910952D01*
X122396142Y-113053809D01*
X122348523Y-113244285D01*
X122300904Y-113339523D01*
X122205666Y-113434761D01*
X122062809Y-113482380D01*
X121824714Y-113482380D01*
X123348523Y-113482380D02*
X122777095Y-113482380D01*
X123062809Y-113482380D02*
X123062809Y-112482380D01*
X122967571Y-112625238D01*
X122872333Y-112720476D01*
X122777095Y-112768095D01*
G04 #@! TO.C,GND2*
X120427904Y-52332000D02*
X120332666Y-52284380D01*
X120189809Y-52284380D01*
X120046952Y-52332000D01*
X119951714Y-52427238D01*
X119904095Y-52522476D01*
X119856476Y-52712952D01*
X119856476Y-52855809D01*
X119904095Y-53046285D01*
X119951714Y-53141523D01*
X120046952Y-53236761D01*
X120189809Y-53284380D01*
X120285047Y-53284380D01*
X120427904Y-53236761D01*
X120475523Y-53189142D01*
X120475523Y-52855809D01*
X120285047Y-52855809D01*
X120904095Y-53284380D02*
X120904095Y-52284380D01*
X121475523Y-53284380D01*
X121475523Y-52284380D01*
X121951714Y-53284380D02*
X121951714Y-52284380D01*
X122189809Y-52284380D01*
X122332666Y-52332000D01*
X122427904Y-52427238D01*
X122475523Y-52522476D01*
X122523142Y-52712952D01*
X122523142Y-52855809D01*
X122475523Y-53046285D01*
X122427904Y-53141523D01*
X122332666Y-53236761D01*
X122189809Y-53284380D01*
X121951714Y-53284380D01*
X122904095Y-52379619D02*
X122951714Y-52332000D01*
X123046952Y-52284380D01*
X123285047Y-52284380D01*
X123380285Y-52332000D01*
X123427904Y-52379619D01*
X123475523Y-52474857D01*
X123475523Y-52570095D01*
X123427904Y-52712952D01*
X122856476Y-53284380D01*
X123475523Y-53284380D01*
G04 #@! TO.C,GND3*
X142779904Y-113419000D02*
X142684666Y-113371380D01*
X142541809Y-113371380D01*
X142398952Y-113419000D01*
X142303714Y-113514238D01*
X142256095Y-113609476D01*
X142208476Y-113799952D01*
X142208476Y-113942809D01*
X142256095Y-114133285D01*
X142303714Y-114228523D01*
X142398952Y-114323761D01*
X142541809Y-114371380D01*
X142637047Y-114371380D01*
X142779904Y-114323761D01*
X142827523Y-114276142D01*
X142827523Y-113942809D01*
X142637047Y-113942809D01*
X143256095Y-114371380D02*
X143256095Y-113371380D01*
X143827523Y-114371380D01*
X143827523Y-113371380D01*
X144303714Y-114371380D02*
X144303714Y-113371380D01*
X144541809Y-113371380D01*
X144684666Y-113419000D01*
X144779904Y-113514238D01*
X144827523Y-113609476D01*
X144875142Y-113799952D01*
X144875142Y-113942809D01*
X144827523Y-114133285D01*
X144779904Y-114228523D01*
X144684666Y-114323761D01*
X144541809Y-114371380D01*
X144303714Y-114371380D01*
X145208476Y-113371380D02*
X145827523Y-113371380D01*
X145494190Y-113752333D01*
X145637047Y-113752333D01*
X145732285Y-113799952D01*
X145779904Y-113847571D01*
X145827523Y-113942809D01*
X145827523Y-114180904D01*
X145779904Y-114276142D01*
X145732285Y-114323761D01*
X145637047Y-114371380D01*
X145351333Y-114371380D01*
X145256095Y-114323761D01*
X145208476Y-114276142D01*
G04 #@! TO.C,GND4*
X149510904Y-52205000D02*
X149415666Y-52157380D01*
X149272809Y-52157380D01*
X149129952Y-52205000D01*
X149034714Y-52300238D01*
X148987095Y-52395476D01*
X148939476Y-52585952D01*
X148939476Y-52728809D01*
X148987095Y-52919285D01*
X149034714Y-53014523D01*
X149129952Y-53109761D01*
X149272809Y-53157380D01*
X149368047Y-53157380D01*
X149510904Y-53109761D01*
X149558523Y-53062142D01*
X149558523Y-52728809D01*
X149368047Y-52728809D01*
X149987095Y-53157380D02*
X149987095Y-52157380D01*
X150558523Y-53157380D01*
X150558523Y-52157380D01*
X151034714Y-53157380D02*
X151034714Y-52157380D01*
X151272809Y-52157380D01*
X151415666Y-52205000D01*
X151510904Y-52300238D01*
X151558523Y-52395476D01*
X151606142Y-52585952D01*
X151606142Y-52728809D01*
X151558523Y-52919285D01*
X151510904Y-53014523D01*
X151415666Y-53109761D01*
X151272809Y-53157380D01*
X151034714Y-53157380D01*
X152463285Y-52490714D02*
X152463285Y-53157380D01*
X152225190Y-52109761D02*
X151987095Y-52824047D01*
X152606142Y-52824047D01*
G04 #@! TD*
M02*
