G04 #@! TF.GenerationSoftware,KiCad,Pcbnew,(5.0.0)*
G04 #@! TF.CreationDate,2019-08-25T12:56:45+02:00*
G04 #@! TF.ProjectId,rfreplacement,72667265706C6163656D656E742E6B69,rev?*
G04 #@! TF.SameCoordinates,Original*
G04 #@! TF.FileFunction,Legend,Bot*
G04 #@! TF.FilePolarity,Positive*
%FSLAX46Y46*%
G04 Gerber Fmt 4.6, Leading zero omitted, Abs format (unit mm)*
G04 Created by KiCad (PCBNEW (5.0.0)) date 08/25/19 12:56:45*
%MOMM*%
%LPD*%
G01*
G04 APERTURE LIST*
%ADD10C,0.300000*%
%ADD11C,0.120000*%
%ADD12C,0.150000*%
G04 APERTURE END LIST*
D10*
X111483285Y-111075285D02*
X111411857Y-111146714D01*
X111340428Y-111361000D01*
X111340428Y-111503857D01*
X111411857Y-111718142D01*
X111554714Y-111861000D01*
X111697571Y-111932428D01*
X111983285Y-112003857D01*
X112197571Y-112003857D01*
X112483285Y-111932428D01*
X112626142Y-111861000D01*
X112769000Y-111718142D01*
X112840428Y-111503857D01*
X112840428Y-111361000D01*
X112769000Y-111146714D01*
X112697571Y-111075285D01*
X112840428Y-109789571D02*
X112840428Y-110075285D01*
X112769000Y-110218142D01*
X112697571Y-110289571D01*
X112483285Y-110432428D01*
X112197571Y-110503857D01*
X111626142Y-110503857D01*
X111483285Y-110432428D01*
X111411857Y-110361000D01*
X111340428Y-110218142D01*
X111340428Y-109932428D01*
X111411857Y-109789571D01*
X111483285Y-109718142D01*
X111626142Y-109646714D01*
X111983285Y-109646714D01*
X112126142Y-109718142D01*
X112197571Y-109789571D01*
X112269000Y-109932428D01*
X112269000Y-110218142D01*
X112197571Y-110361000D01*
X112126142Y-110432428D01*
X111983285Y-110503857D01*
X112340428Y-108361000D02*
X111340428Y-108361000D01*
X112911857Y-108718142D02*
X111840428Y-109075285D01*
X111840428Y-108146714D01*
X112840428Y-106646714D02*
X111340428Y-106146714D01*
X112840428Y-105646714D01*
X111340428Y-105146714D02*
X112340428Y-105146714D01*
X112840428Y-105146714D02*
X112769000Y-105218142D01*
X112697571Y-105146714D01*
X112769000Y-105075285D01*
X112840428Y-105146714D01*
X112697571Y-105146714D01*
X111340428Y-103789571D02*
X112840428Y-103789571D01*
X111411857Y-103789571D02*
X111340428Y-103932428D01*
X111340428Y-104218142D01*
X111411857Y-104361000D01*
X111483285Y-104432428D01*
X111626142Y-104503857D01*
X112054714Y-104503857D01*
X112197571Y-104432428D01*
X112269000Y-104361000D01*
X112340428Y-104218142D01*
X112340428Y-103932428D01*
X112269000Y-103789571D01*
X111411857Y-102503857D02*
X111340428Y-102646714D01*
X111340428Y-102932428D01*
X111411857Y-103075285D01*
X111554714Y-103146714D01*
X112126142Y-103146714D01*
X112269000Y-103075285D01*
X112340428Y-102932428D01*
X112340428Y-102646714D01*
X112269000Y-102503857D01*
X112126142Y-102432428D01*
X111983285Y-102432428D01*
X111840428Y-103146714D01*
X111340428Y-101575285D02*
X111411857Y-101718142D01*
X111483285Y-101789571D01*
X111626142Y-101861000D01*
X112054714Y-101861000D01*
X112197571Y-101789571D01*
X112269000Y-101718142D01*
X112340428Y-101575285D01*
X112340428Y-101361000D01*
X112269000Y-101218142D01*
X112197571Y-101146714D01*
X112054714Y-101075285D01*
X111626142Y-101075285D01*
X111483285Y-101146714D01*
X111411857Y-101218142D01*
X111340428Y-101361000D01*
X111340428Y-101575285D01*
X112126142Y-99289571D02*
X112126142Y-98789571D01*
X111340428Y-98575285D02*
X111340428Y-99289571D01*
X112840428Y-99289571D01*
X112840428Y-98575285D01*
X112340428Y-97932428D02*
X111340428Y-97932428D01*
X112197571Y-97932428D02*
X112269000Y-97861000D01*
X112340428Y-97718142D01*
X112340428Y-97503857D01*
X112269000Y-97361000D01*
X112126142Y-97289571D01*
X111340428Y-97289571D01*
X111340428Y-96575285D02*
X112840428Y-96575285D01*
X111340428Y-95932428D02*
X112126142Y-95932428D01*
X112269000Y-96003857D01*
X112340428Y-96146714D01*
X112340428Y-96361000D01*
X112269000Y-96503857D01*
X112197571Y-96575285D01*
X111340428Y-94575285D02*
X112126142Y-94575285D01*
X112269000Y-94646714D01*
X112340428Y-94789571D01*
X112340428Y-95075285D01*
X112269000Y-95218142D01*
X111411857Y-94575285D02*
X111340428Y-94718142D01*
X111340428Y-95075285D01*
X111411857Y-95218142D01*
X111554714Y-95289571D01*
X111697571Y-95289571D01*
X111840428Y-95218142D01*
X111911857Y-95075285D01*
X111911857Y-94718142D01*
X111983285Y-94575285D01*
X112340428Y-93861000D02*
X111340428Y-93861000D01*
X112197571Y-93861000D02*
X112269000Y-93789571D01*
X112340428Y-93646714D01*
X112340428Y-93432428D01*
X112269000Y-93289571D01*
X112126142Y-93218142D01*
X111340428Y-93218142D01*
X111411857Y-91861000D02*
X111340428Y-92003857D01*
X111340428Y-92289571D01*
X111411857Y-92432428D01*
X111483285Y-92503857D01*
X111626142Y-92575285D01*
X112054714Y-92575285D01*
X112197571Y-92503857D01*
X112269000Y-92432428D01*
X112340428Y-92289571D01*
X112340428Y-92003857D01*
X112269000Y-91861000D01*
X111411857Y-90646714D02*
X111340428Y-90789571D01*
X111340428Y-91075285D01*
X111411857Y-91218142D01*
X111554714Y-91289571D01*
X112126142Y-91289571D01*
X112269000Y-91218142D01*
X112340428Y-91075285D01*
X112340428Y-90789571D01*
X112269000Y-90646714D01*
X112126142Y-90575285D01*
X111983285Y-90575285D01*
X111840428Y-91289571D01*
X111340428Y-89932428D02*
X112340428Y-89932428D01*
X112197571Y-89932428D02*
X112269000Y-89861000D01*
X112340428Y-89718142D01*
X112340428Y-89503857D01*
X112269000Y-89361000D01*
X112126142Y-89289571D01*
X111340428Y-89289571D01*
X112126142Y-89289571D02*
X112269000Y-89218142D01*
X112340428Y-89075285D01*
X112340428Y-88861000D01*
X112269000Y-88718142D01*
X112126142Y-88646714D01*
X111340428Y-88646714D01*
X111411857Y-87361000D02*
X111340428Y-87503857D01*
X111340428Y-87789571D01*
X111411857Y-87932428D01*
X111554714Y-88003857D01*
X112126142Y-88003857D01*
X112269000Y-87932428D01*
X112340428Y-87789571D01*
X112340428Y-87503857D01*
X112269000Y-87361000D01*
X112126142Y-87289571D01*
X111983285Y-87289571D01*
X111840428Y-88003857D01*
X112340428Y-86646714D02*
X111340428Y-86646714D01*
X112197571Y-86646714D02*
X112269000Y-86575285D01*
X112340428Y-86432428D01*
X112340428Y-86218142D01*
X112269000Y-86075285D01*
X112126142Y-86003857D01*
X111340428Y-86003857D01*
X112340428Y-85503857D02*
X112340428Y-84932428D01*
X112840428Y-85289571D02*
X111554714Y-85289571D01*
X111411857Y-85218142D01*
X111340428Y-85075285D01*
X111340428Y-84932428D01*
X111340428Y-82432428D02*
X112054714Y-82932428D01*
X111340428Y-83289571D02*
X112840428Y-83289571D01*
X112840428Y-82718142D01*
X112769000Y-82575285D01*
X112697571Y-82503857D01*
X112554714Y-82432428D01*
X112340428Y-82432428D01*
X112197571Y-82503857D01*
X112126142Y-82575285D01*
X112054714Y-82718142D01*
X112054714Y-83289571D01*
X111411857Y-81218142D02*
X111340428Y-81361000D01*
X111340428Y-81646714D01*
X111411857Y-81789571D01*
X111554714Y-81861000D01*
X112126142Y-81861000D01*
X112269000Y-81789571D01*
X112340428Y-81646714D01*
X112340428Y-81361000D01*
X112269000Y-81218142D01*
X112126142Y-81146714D01*
X111983285Y-81146714D01*
X111840428Y-81861000D01*
X112340428Y-80646714D02*
X111340428Y-80289571D01*
X112340428Y-79932428D01*
X111483285Y-79361000D02*
X111411857Y-79289571D01*
X111340428Y-79361000D01*
X111411857Y-79432428D01*
X111483285Y-79361000D01*
X111340428Y-79361000D01*
X112340428Y-76861000D02*
X111340428Y-76861000D01*
X112911857Y-77218142D02*
X111840428Y-77575285D01*
X111840428Y-76646714D01*
X109790428Y-108003857D02*
X108576142Y-108003857D01*
X108433285Y-108075285D01*
X108361857Y-108146714D01*
X108290428Y-108289571D01*
X108290428Y-108503857D01*
X108361857Y-108646714D01*
X108861857Y-108003857D02*
X108790428Y-108146714D01*
X108790428Y-108432428D01*
X108861857Y-108575285D01*
X108933285Y-108646714D01*
X109076142Y-108718142D01*
X109504714Y-108718142D01*
X109647571Y-108646714D01*
X109719000Y-108575285D01*
X109790428Y-108432428D01*
X109790428Y-108146714D01*
X109719000Y-108003857D01*
X108790428Y-107289571D02*
X109790428Y-107289571D01*
X110290428Y-107289571D02*
X110219000Y-107361000D01*
X110147571Y-107289571D01*
X110219000Y-107218142D01*
X110290428Y-107289571D01*
X110147571Y-107289571D01*
X109790428Y-106789571D02*
X109790428Y-106218142D01*
X110290428Y-106575285D02*
X109004714Y-106575285D01*
X108861857Y-106503857D01*
X108790428Y-106361000D01*
X108790428Y-106218142D01*
X108790428Y-105718142D02*
X110290428Y-105718142D01*
X108790428Y-105075285D02*
X109576142Y-105075285D01*
X109719000Y-105146714D01*
X109790428Y-105289571D01*
X109790428Y-105503857D01*
X109719000Y-105646714D01*
X109647571Y-105718142D01*
X109790428Y-103718142D02*
X108790428Y-103718142D01*
X109790428Y-104361000D02*
X109004714Y-104361000D01*
X108861857Y-104289571D01*
X108790428Y-104146714D01*
X108790428Y-103932428D01*
X108861857Y-103789571D01*
X108933285Y-103718142D01*
X108790428Y-103003857D02*
X110290428Y-103003857D01*
X109719000Y-103003857D02*
X109790428Y-102861000D01*
X109790428Y-102575285D01*
X109719000Y-102432428D01*
X109647571Y-102361000D01*
X109504714Y-102289571D01*
X109076142Y-102289571D01*
X108933285Y-102361000D01*
X108861857Y-102432428D01*
X108790428Y-102575285D01*
X108790428Y-102861000D01*
X108861857Y-103003857D01*
X108933285Y-101646714D02*
X108861857Y-101575285D01*
X108790428Y-101646714D01*
X108861857Y-101718142D01*
X108933285Y-101646714D01*
X108790428Y-101646714D01*
X108861857Y-100289571D02*
X108790428Y-100432428D01*
X108790428Y-100718142D01*
X108861857Y-100861000D01*
X108933285Y-100932428D01*
X109076142Y-101003857D01*
X109504714Y-101003857D01*
X109647571Y-100932428D01*
X109719000Y-100861000D01*
X109790428Y-100718142D01*
X109790428Y-100432428D01*
X109719000Y-100289571D01*
X108790428Y-99432428D02*
X108861857Y-99575285D01*
X108933285Y-99646714D01*
X109076142Y-99718142D01*
X109504714Y-99718142D01*
X109647571Y-99646714D01*
X109719000Y-99575285D01*
X109790428Y-99432428D01*
X109790428Y-99218142D01*
X109719000Y-99075285D01*
X109647571Y-99003857D01*
X109504714Y-98932428D01*
X109076142Y-98932428D01*
X108933285Y-99003857D01*
X108861857Y-99075285D01*
X108790428Y-99218142D01*
X108790428Y-99432428D01*
X108790428Y-98289571D02*
X109790428Y-98289571D01*
X109647571Y-98289571D02*
X109719000Y-98218142D01*
X109790428Y-98075285D01*
X109790428Y-97860999D01*
X109719000Y-97718142D01*
X109576142Y-97646714D01*
X108790428Y-97646714D01*
X109576142Y-97646714D02*
X109719000Y-97575285D01*
X109790428Y-97432428D01*
X109790428Y-97218142D01*
X109719000Y-97075285D01*
X109576142Y-97003857D01*
X108790428Y-97003857D01*
X110361857Y-95218142D02*
X108433285Y-96503857D01*
X108861857Y-94075285D02*
X108790428Y-94218142D01*
X108790428Y-94503857D01*
X108861857Y-94646714D01*
X108933285Y-94718142D01*
X109076142Y-94789571D01*
X109504714Y-94789571D01*
X109647571Y-94718142D01*
X109719000Y-94646714D01*
X109790428Y-94503857D01*
X109790428Y-94218142D01*
X109719000Y-94075285D01*
X110290428Y-93146714D02*
X110290428Y-93003857D01*
X110219000Y-92860999D01*
X110147571Y-92789571D01*
X110004714Y-92718142D01*
X109719000Y-92646714D01*
X109361857Y-92646714D01*
X109076142Y-92718142D01*
X108933285Y-92789571D01*
X108861857Y-92860999D01*
X108790428Y-93003857D01*
X108790428Y-93146714D01*
X108861857Y-93289571D01*
X108933285Y-93360999D01*
X109076142Y-93432428D01*
X109361857Y-93503857D01*
X109719000Y-93503857D01*
X110004714Y-93432428D01*
X110147571Y-93360999D01*
X110219000Y-93289571D01*
X110290428Y-93146714D01*
X109790428Y-92003857D02*
X108290428Y-92003857D01*
X109719000Y-92003857D02*
X109790428Y-91860999D01*
X109790428Y-91575285D01*
X109719000Y-91432428D01*
X109647571Y-91360999D01*
X109504714Y-91289571D01*
X109076142Y-91289571D01*
X108933285Y-91360999D01*
X108861857Y-91432428D01*
X108790428Y-91575285D01*
X108790428Y-91860999D01*
X108861857Y-92003857D01*
X109790428Y-90646714D02*
X108290428Y-90646714D01*
X109719000Y-90646714D02*
X109790428Y-90503857D01*
X109790428Y-90218142D01*
X109719000Y-90075285D01*
X109647571Y-90003857D01*
X109504714Y-89932428D01*
X109076142Y-89932428D01*
X108933285Y-90003857D01*
X108861857Y-90075285D01*
X108790428Y-90218142D01*
X108790428Y-90503857D01*
X108861857Y-90646714D01*
X108861857Y-88718142D02*
X108790428Y-88861000D01*
X108790428Y-89146714D01*
X108861857Y-89289571D01*
X109004714Y-89361000D01*
X109576142Y-89361000D01*
X109719000Y-89289571D01*
X109790428Y-89146714D01*
X109790428Y-88861000D01*
X109719000Y-88718142D01*
X109576142Y-88646714D01*
X109433285Y-88646714D01*
X109290428Y-89361000D01*
X108790428Y-88003857D02*
X109790428Y-88003857D01*
X109504714Y-88003857D02*
X109647571Y-87932428D01*
X109719000Y-87861000D01*
X109790428Y-87718142D01*
X109790428Y-87575285D01*
X108790428Y-86432428D02*
X110290428Y-86432428D01*
X108861857Y-86432428D02*
X108790428Y-86575285D01*
X108790428Y-86861000D01*
X108861857Y-87003857D01*
X108933285Y-87075285D01*
X109076142Y-87146714D01*
X109504714Y-87146714D01*
X109647571Y-87075285D01*
X109719000Y-87003857D01*
X109790428Y-86861000D01*
X109790428Y-86575285D01*
X109719000Y-86432428D01*
X108790428Y-85718142D02*
X109790428Y-85718142D01*
X109504714Y-85718142D02*
X109647571Y-85646714D01*
X109719000Y-85575285D01*
X109790428Y-85432428D01*
X109790428Y-85289571D01*
X108790428Y-84146714D02*
X109576142Y-84146714D01*
X109719000Y-84218142D01*
X109790428Y-84361000D01*
X109790428Y-84646714D01*
X109719000Y-84789571D01*
X108861857Y-84146714D02*
X108790428Y-84289571D01*
X108790428Y-84646714D01*
X108861857Y-84789571D01*
X109004714Y-84861000D01*
X109147571Y-84861000D01*
X109290428Y-84789571D01*
X109361857Y-84646714D01*
X109361857Y-84289571D01*
X109433285Y-84146714D01*
X109790428Y-82789571D02*
X108576142Y-82789571D01*
X108433285Y-82860999D01*
X108361857Y-82932428D01*
X108290428Y-83075285D01*
X108290428Y-83289571D01*
X108361857Y-83432428D01*
X108861857Y-82789571D02*
X108790428Y-82932428D01*
X108790428Y-83218142D01*
X108861857Y-83360999D01*
X108933285Y-83432428D01*
X109076142Y-83503857D01*
X109504714Y-83503857D01*
X109647571Y-83432428D01*
X109719000Y-83360999D01*
X109790428Y-83218142D01*
X109790428Y-82932428D01*
X109719000Y-82789571D01*
X108790428Y-81860999D02*
X108861857Y-82003857D01*
X108933285Y-82075285D01*
X109076142Y-82146714D01*
X109504714Y-82146714D01*
X109647571Y-82075285D01*
X109719000Y-82003857D01*
X109790428Y-81860999D01*
X109790428Y-81646714D01*
X109719000Y-81503857D01*
X109647571Y-81432428D01*
X109504714Y-81360999D01*
X109076142Y-81360999D01*
X108933285Y-81432428D01*
X108861857Y-81503857D01*
X108790428Y-81646714D01*
X108790428Y-81860999D01*
X109790428Y-80718142D02*
X108790428Y-80718142D01*
X109647571Y-80718142D02*
X109719000Y-80646714D01*
X109790428Y-80503857D01*
X109790428Y-80289571D01*
X109719000Y-80146714D01*
X109576142Y-80075285D01*
X108790428Y-80075285D01*
D11*
G04 #@! TO.C,C11*
X128780000Y-76155733D02*
X128780000Y-76498267D01*
X127760000Y-76155733D02*
X127760000Y-76498267D01*
G04 #@! TO.C,C14*
X138220267Y-90930000D02*
X137877733Y-90930000D01*
X138220267Y-91950000D02*
X137877733Y-91950000D01*
G04 #@! TO.C,C24*
X126748000Y-79076733D02*
X126748000Y-79419267D01*
X125728000Y-79076733D02*
X125728000Y-79419267D01*
G04 #@! TO.C,C25*
X145540000Y-83394733D02*
X145540000Y-83737267D01*
X146560000Y-83394733D02*
X146560000Y-83737267D01*
G04 #@! TO.C,C12*
X144570267Y-73150000D02*
X144227733Y-73150000D01*
X144570267Y-74170000D02*
X144227733Y-74170000D01*
G04 #@! TO.C,C20*
X130130733Y-93982000D02*
X130473267Y-93982000D01*
X130130733Y-92962000D02*
X130473267Y-92962000D01*
G04 #@! TO.C,C19*
X134029267Y-91950000D02*
X133686733Y-91950000D01*
X134029267Y-90930000D02*
X133686733Y-90930000D01*
G04 #@! TO.C,C13*
X146560000Y-79203733D02*
X146560000Y-79546267D01*
X145540000Y-79203733D02*
X145540000Y-79546267D01*
G04 #@! TO.C,C15*
X127760000Y-89706267D02*
X127760000Y-89363733D01*
X128780000Y-89706267D02*
X128780000Y-89363733D01*
G04 #@! TO.C,C26*
X140887267Y-74170000D02*
X140544733Y-74170000D01*
X140887267Y-73150000D02*
X140544733Y-73150000D01*
G04 #@! TO.C,C27*
X132797733Y-73150000D02*
X133140267Y-73150000D01*
X132797733Y-74170000D02*
X133140267Y-74170000D01*
G04 #@! TO.C,C16*
X127760000Y-80727733D02*
X127760000Y-81070267D01*
X128780000Y-80727733D02*
X128780000Y-81070267D01*
G04 #@! TO.C,C21*
X129495733Y-70991000D02*
X129838267Y-70991000D01*
X129495733Y-72011000D02*
X129838267Y-72011000D01*
G04 #@! TO.C,C22*
X141522267Y-90930000D02*
X141179733Y-90930000D01*
X141522267Y-91950000D02*
X141179733Y-91950000D01*
G04 #@! TO.C,C18*
X146560000Y-88450267D02*
X146560000Y-88107733D01*
X145540000Y-88450267D02*
X145540000Y-88107733D01*
G04 #@! TO.C,C17*
X127760000Y-86277267D02*
X127760000Y-85934733D01*
X128780000Y-86277267D02*
X128780000Y-85934733D01*
G04 #@! TO.C,C23*
X136353733Y-74170000D02*
X136696267Y-74170000D01*
X136353733Y-73150000D02*
X136696267Y-73150000D01*
G04 #@! TO.C,C33*
X145540000Y-75647733D02*
X145540000Y-75990267D01*
X146560000Y-75647733D02*
X146560000Y-75990267D01*
G04 #@! TO.C,C32*
X130812000Y-74504733D02*
X130812000Y-74847267D01*
X129792000Y-74504733D02*
X129792000Y-74847267D01*
G04 #@! TO.C,C31*
X130130733Y-91950000D02*
X130473267Y-91950000D01*
X130130733Y-90930000D02*
X130473267Y-90930000D01*
G04 #@! TO.C,C34*
X144062267Y-94236000D02*
X143719733Y-94236000D01*
X144062267Y-93216000D02*
X143719733Y-93216000D01*
G04 #@! TO.C,C11*
D12*
X127197142Y-75684142D02*
X127244761Y-75636523D01*
X127292380Y-75493666D01*
X127292380Y-75398428D01*
X127244761Y-75255571D01*
X127149523Y-75160333D01*
X127054285Y-75112714D01*
X126863809Y-75065095D01*
X126720952Y-75065095D01*
X126530476Y-75112714D01*
X126435238Y-75160333D01*
X126340000Y-75255571D01*
X126292380Y-75398428D01*
X126292380Y-75493666D01*
X126340000Y-75636523D01*
X126387619Y-75684142D01*
X127292380Y-76636523D02*
X127292380Y-76065095D01*
X127292380Y-76350809D02*
X126292380Y-76350809D01*
X126435238Y-76255571D01*
X126530476Y-76160333D01*
X126578095Y-76065095D01*
X127292380Y-77588904D02*
X127292380Y-77017476D01*
X127292380Y-77303190D02*
X126292380Y-77303190D01*
X126435238Y-77207952D01*
X126530476Y-77112714D01*
X126578095Y-77017476D01*
G04 #@! TO.C,C14*
X138691857Y-90367142D02*
X138739476Y-90414761D01*
X138882333Y-90462380D01*
X138977571Y-90462380D01*
X139120428Y-90414761D01*
X139215666Y-90319523D01*
X139263285Y-90224285D01*
X139310904Y-90033809D01*
X139310904Y-89890952D01*
X139263285Y-89700476D01*
X139215666Y-89605238D01*
X139120428Y-89510000D01*
X138977571Y-89462380D01*
X138882333Y-89462380D01*
X138739476Y-89510000D01*
X138691857Y-89557619D01*
X137739476Y-90462380D02*
X138310904Y-90462380D01*
X138025190Y-90462380D02*
X138025190Y-89462380D01*
X138120428Y-89605238D01*
X138215666Y-89700476D01*
X138310904Y-89748095D01*
X136882333Y-89795714D02*
X136882333Y-90462380D01*
X137120428Y-89414761D02*
X137358523Y-90129047D01*
X136739476Y-90129047D01*
G04 #@! TO.C,C24*
X125165142Y-78605142D02*
X125212761Y-78557523D01*
X125260380Y-78414666D01*
X125260380Y-78319428D01*
X125212761Y-78176571D01*
X125117523Y-78081333D01*
X125022285Y-78033714D01*
X124831809Y-77986095D01*
X124688952Y-77986095D01*
X124498476Y-78033714D01*
X124403238Y-78081333D01*
X124308000Y-78176571D01*
X124260380Y-78319428D01*
X124260380Y-78414666D01*
X124308000Y-78557523D01*
X124355619Y-78605142D01*
X124355619Y-78986095D02*
X124308000Y-79033714D01*
X124260380Y-79128952D01*
X124260380Y-79367047D01*
X124308000Y-79462285D01*
X124355619Y-79509904D01*
X124450857Y-79557523D01*
X124546095Y-79557523D01*
X124688952Y-79509904D01*
X125260380Y-78938476D01*
X125260380Y-79557523D01*
X124593714Y-80414666D02*
X125260380Y-80414666D01*
X124212761Y-80176571D02*
X124927047Y-79938476D01*
X124927047Y-80557523D01*
G04 #@! TO.C,C25*
X144977142Y-82923142D02*
X145024761Y-82875523D01*
X145072380Y-82732666D01*
X145072380Y-82637428D01*
X145024761Y-82494571D01*
X144929523Y-82399333D01*
X144834285Y-82351714D01*
X144643809Y-82304095D01*
X144500952Y-82304095D01*
X144310476Y-82351714D01*
X144215238Y-82399333D01*
X144120000Y-82494571D01*
X144072380Y-82637428D01*
X144072380Y-82732666D01*
X144120000Y-82875523D01*
X144167619Y-82923142D01*
X144167619Y-83304095D02*
X144120000Y-83351714D01*
X144072380Y-83446952D01*
X144072380Y-83685047D01*
X144120000Y-83780285D01*
X144167619Y-83827904D01*
X144262857Y-83875523D01*
X144358095Y-83875523D01*
X144500952Y-83827904D01*
X145072380Y-83256476D01*
X145072380Y-83875523D01*
X144072380Y-84780285D02*
X144072380Y-84304095D01*
X144548571Y-84256476D01*
X144500952Y-84304095D01*
X144453333Y-84399333D01*
X144453333Y-84637428D01*
X144500952Y-84732666D01*
X144548571Y-84780285D01*
X144643809Y-84827904D01*
X144881904Y-84827904D01*
X144977142Y-84780285D01*
X145024761Y-84732666D01*
X145072380Y-84637428D01*
X145072380Y-84399333D01*
X145024761Y-84304095D01*
X144977142Y-84256476D01*
G04 #@! TO.C,C12*
X145041857Y-72587142D02*
X145089476Y-72634761D01*
X145232333Y-72682380D01*
X145327571Y-72682380D01*
X145470428Y-72634761D01*
X145565666Y-72539523D01*
X145613285Y-72444285D01*
X145660904Y-72253809D01*
X145660904Y-72110952D01*
X145613285Y-71920476D01*
X145565666Y-71825238D01*
X145470428Y-71730000D01*
X145327571Y-71682380D01*
X145232333Y-71682380D01*
X145089476Y-71730000D01*
X145041857Y-71777619D01*
X144089476Y-72682380D02*
X144660904Y-72682380D01*
X144375190Y-72682380D02*
X144375190Y-71682380D01*
X144470428Y-71825238D01*
X144565666Y-71920476D01*
X144660904Y-71968095D01*
X143708523Y-71777619D02*
X143660904Y-71730000D01*
X143565666Y-71682380D01*
X143327571Y-71682380D01*
X143232333Y-71730000D01*
X143184714Y-71777619D01*
X143137095Y-71872857D01*
X143137095Y-71968095D01*
X143184714Y-72110952D01*
X143756142Y-72682380D01*
X143137095Y-72682380D01*
G04 #@! TO.C,C20*
X133992857Y-93829142D02*
X134040476Y-93876761D01*
X134183333Y-93924380D01*
X134278571Y-93924380D01*
X134421428Y-93876761D01*
X134516666Y-93781523D01*
X134564285Y-93686285D01*
X134611904Y-93495809D01*
X134611904Y-93352952D01*
X134564285Y-93162476D01*
X134516666Y-93067238D01*
X134421428Y-92972000D01*
X134278571Y-92924380D01*
X134183333Y-92924380D01*
X134040476Y-92972000D01*
X133992857Y-93019619D01*
X133611904Y-93019619D02*
X133564285Y-92972000D01*
X133469047Y-92924380D01*
X133230952Y-92924380D01*
X133135714Y-92972000D01*
X133088095Y-93019619D01*
X133040476Y-93114857D01*
X133040476Y-93210095D01*
X133088095Y-93352952D01*
X133659523Y-93924380D01*
X133040476Y-93924380D01*
X132421428Y-92924380D02*
X132326190Y-92924380D01*
X132230952Y-92972000D01*
X132183333Y-93019619D01*
X132135714Y-93114857D01*
X132088095Y-93305333D01*
X132088095Y-93543428D01*
X132135714Y-93733904D01*
X132183333Y-93829142D01*
X132230952Y-93876761D01*
X132326190Y-93924380D01*
X132421428Y-93924380D01*
X132516666Y-93876761D01*
X132564285Y-93829142D01*
X132611904Y-93733904D01*
X132659523Y-93543428D01*
X132659523Y-93305333D01*
X132611904Y-93114857D01*
X132564285Y-93019619D01*
X132516666Y-92972000D01*
X132421428Y-92924380D01*
G04 #@! TO.C,C19*
X134500857Y-90367142D02*
X134548476Y-90414761D01*
X134691333Y-90462380D01*
X134786571Y-90462380D01*
X134929428Y-90414761D01*
X135024666Y-90319523D01*
X135072285Y-90224285D01*
X135119904Y-90033809D01*
X135119904Y-89890952D01*
X135072285Y-89700476D01*
X135024666Y-89605238D01*
X134929428Y-89510000D01*
X134786571Y-89462380D01*
X134691333Y-89462380D01*
X134548476Y-89510000D01*
X134500857Y-89557619D01*
X133548476Y-90462380D02*
X134119904Y-90462380D01*
X133834190Y-90462380D02*
X133834190Y-89462380D01*
X133929428Y-89605238D01*
X134024666Y-89700476D01*
X134119904Y-89748095D01*
X133072285Y-90462380D02*
X132881809Y-90462380D01*
X132786571Y-90414761D01*
X132738952Y-90367142D01*
X132643714Y-90224285D01*
X132596095Y-90033809D01*
X132596095Y-89652857D01*
X132643714Y-89557619D01*
X132691333Y-89510000D01*
X132786571Y-89462380D01*
X132977047Y-89462380D01*
X133072285Y-89510000D01*
X133119904Y-89557619D01*
X133167523Y-89652857D01*
X133167523Y-89890952D01*
X133119904Y-89986190D01*
X133072285Y-90033809D01*
X132977047Y-90081428D01*
X132786571Y-90081428D01*
X132691333Y-90033809D01*
X132643714Y-89986190D01*
X132596095Y-89890952D01*
G04 #@! TO.C,C13*
X144977142Y-78732142D02*
X145024761Y-78684523D01*
X145072380Y-78541666D01*
X145072380Y-78446428D01*
X145024761Y-78303571D01*
X144929523Y-78208333D01*
X144834285Y-78160714D01*
X144643809Y-78113095D01*
X144500952Y-78113095D01*
X144310476Y-78160714D01*
X144215238Y-78208333D01*
X144120000Y-78303571D01*
X144072380Y-78446428D01*
X144072380Y-78541666D01*
X144120000Y-78684523D01*
X144167619Y-78732142D01*
X145072380Y-79684523D02*
X145072380Y-79113095D01*
X145072380Y-79398809D02*
X144072380Y-79398809D01*
X144215238Y-79303571D01*
X144310476Y-79208333D01*
X144358095Y-79113095D01*
X144072380Y-80017857D02*
X144072380Y-80636904D01*
X144453333Y-80303571D01*
X144453333Y-80446428D01*
X144500952Y-80541666D01*
X144548571Y-80589285D01*
X144643809Y-80636904D01*
X144881904Y-80636904D01*
X144977142Y-80589285D01*
X145024761Y-80541666D01*
X145072380Y-80446428D01*
X145072380Y-80160714D01*
X145024761Y-80065476D01*
X144977142Y-80017857D01*
G04 #@! TO.C,C15*
X130151142Y-88638142D02*
X130198761Y-88590523D01*
X130246380Y-88447666D01*
X130246380Y-88352428D01*
X130198761Y-88209571D01*
X130103523Y-88114333D01*
X130008285Y-88066714D01*
X129817809Y-88019095D01*
X129674952Y-88019095D01*
X129484476Y-88066714D01*
X129389238Y-88114333D01*
X129294000Y-88209571D01*
X129246380Y-88352428D01*
X129246380Y-88447666D01*
X129294000Y-88590523D01*
X129341619Y-88638142D01*
X130246380Y-89590523D02*
X130246380Y-89019095D01*
X130246380Y-89304809D02*
X129246380Y-89304809D01*
X129389238Y-89209571D01*
X129484476Y-89114333D01*
X129532095Y-89019095D01*
X129246380Y-90495285D02*
X129246380Y-90019095D01*
X129722571Y-89971476D01*
X129674952Y-90019095D01*
X129627333Y-90114333D01*
X129627333Y-90352428D01*
X129674952Y-90447666D01*
X129722571Y-90495285D01*
X129817809Y-90542904D01*
X130055904Y-90542904D01*
X130151142Y-90495285D01*
X130198761Y-90447666D01*
X130246380Y-90352428D01*
X130246380Y-90114333D01*
X130198761Y-90019095D01*
X130151142Y-89971476D01*
G04 #@! TO.C,C26*
X141358857Y-72587142D02*
X141406476Y-72634761D01*
X141549333Y-72682380D01*
X141644571Y-72682380D01*
X141787428Y-72634761D01*
X141882666Y-72539523D01*
X141930285Y-72444285D01*
X141977904Y-72253809D01*
X141977904Y-72110952D01*
X141930285Y-71920476D01*
X141882666Y-71825238D01*
X141787428Y-71730000D01*
X141644571Y-71682380D01*
X141549333Y-71682380D01*
X141406476Y-71730000D01*
X141358857Y-71777619D01*
X140977904Y-71777619D02*
X140930285Y-71730000D01*
X140835047Y-71682380D01*
X140596952Y-71682380D01*
X140501714Y-71730000D01*
X140454095Y-71777619D01*
X140406476Y-71872857D01*
X140406476Y-71968095D01*
X140454095Y-72110952D01*
X141025523Y-72682380D01*
X140406476Y-72682380D01*
X139549333Y-71682380D02*
X139739809Y-71682380D01*
X139835047Y-71730000D01*
X139882666Y-71777619D01*
X139977904Y-71920476D01*
X140025523Y-72110952D01*
X140025523Y-72491904D01*
X139977904Y-72587142D01*
X139930285Y-72634761D01*
X139835047Y-72682380D01*
X139644571Y-72682380D01*
X139549333Y-72634761D01*
X139501714Y-72587142D01*
X139454095Y-72491904D01*
X139454095Y-72253809D01*
X139501714Y-72158571D01*
X139549333Y-72110952D01*
X139644571Y-72063333D01*
X139835047Y-72063333D01*
X139930285Y-72110952D01*
X139977904Y-72158571D01*
X140025523Y-72253809D01*
G04 #@! TO.C,C27*
X133484857Y-72620142D02*
X133532476Y-72667761D01*
X133675333Y-72715380D01*
X133770571Y-72715380D01*
X133913428Y-72667761D01*
X134008666Y-72572523D01*
X134056285Y-72477285D01*
X134103904Y-72286809D01*
X134103904Y-72143952D01*
X134056285Y-71953476D01*
X134008666Y-71858238D01*
X133913428Y-71763000D01*
X133770571Y-71715380D01*
X133675333Y-71715380D01*
X133532476Y-71763000D01*
X133484857Y-71810619D01*
X133103904Y-71810619D02*
X133056285Y-71763000D01*
X132961047Y-71715380D01*
X132722952Y-71715380D01*
X132627714Y-71763000D01*
X132580095Y-71810619D01*
X132532476Y-71905857D01*
X132532476Y-72001095D01*
X132580095Y-72143952D01*
X133151523Y-72715380D01*
X132532476Y-72715380D01*
X132199142Y-71715380D02*
X131532476Y-71715380D01*
X131961047Y-72715380D01*
G04 #@! TO.C,C16*
X127230142Y-81907142D02*
X127277761Y-81859523D01*
X127325380Y-81716666D01*
X127325380Y-81621428D01*
X127277761Y-81478571D01*
X127182523Y-81383333D01*
X127087285Y-81335714D01*
X126896809Y-81288095D01*
X126753952Y-81288095D01*
X126563476Y-81335714D01*
X126468238Y-81383333D01*
X126373000Y-81478571D01*
X126325380Y-81621428D01*
X126325380Y-81716666D01*
X126373000Y-81859523D01*
X126420619Y-81907142D01*
X127325380Y-82859523D02*
X127325380Y-82288095D01*
X127325380Y-82573809D02*
X126325380Y-82573809D01*
X126468238Y-82478571D01*
X126563476Y-82383333D01*
X126611095Y-82288095D01*
X126325380Y-83716666D02*
X126325380Y-83526190D01*
X126373000Y-83430952D01*
X126420619Y-83383333D01*
X126563476Y-83288095D01*
X126753952Y-83240476D01*
X127134904Y-83240476D01*
X127230142Y-83288095D01*
X127277761Y-83335714D01*
X127325380Y-83430952D01*
X127325380Y-83621428D01*
X127277761Y-83716666D01*
X127230142Y-83764285D01*
X127134904Y-83811904D01*
X126896809Y-83811904D01*
X126801571Y-83764285D01*
X126753952Y-83716666D01*
X126706333Y-83621428D01*
X126706333Y-83430952D01*
X126753952Y-83335714D01*
X126801571Y-83288095D01*
X126896809Y-83240476D01*
G04 #@! TO.C,C21*
X128404857Y-73288142D02*
X128452476Y-73335761D01*
X128595333Y-73383380D01*
X128690571Y-73383380D01*
X128833428Y-73335761D01*
X128928666Y-73240523D01*
X128976285Y-73145285D01*
X129023904Y-72954809D01*
X129023904Y-72811952D01*
X128976285Y-72621476D01*
X128928666Y-72526238D01*
X128833428Y-72431000D01*
X128690571Y-72383380D01*
X128595333Y-72383380D01*
X128452476Y-72431000D01*
X128404857Y-72478619D01*
X128023904Y-72478619D02*
X127976285Y-72431000D01*
X127881047Y-72383380D01*
X127642952Y-72383380D01*
X127547714Y-72431000D01*
X127500095Y-72478619D01*
X127452476Y-72573857D01*
X127452476Y-72669095D01*
X127500095Y-72811952D01*
X128071523Y-73383380D01*
X127452476Y-73383380D01*
X126500095Y-73383380D02*
X127071523Y-73383380D01*
X126785809Y-73383380D02*
X126785809Y-72383380D01*
X126881047Y-72526238D01*
X126976285Y-72621476D01*
X127071523Y-72669095D01*
G04 #@! TO.C,C22*
X141993857Y-90367142D02*
X142041476Y-90414761D01*
X142184333Y-90462380D01*
X142279571Y-90462380D01*
X142422428Y-90414761D01*
X142517666Y-90319523D01*
X142565285Y-90224285D01*
X142612904Y-90033809D01*
X142612904Y-89890952D01*
X142565285Y-89700476D01*
X142517666Y-89605238D01*
X142422428Y-89510000D01*
X142279571Y-89462380D01*
X142184333Y-89462380D01*
X142041476Y-89510000D01*
X141993857Y-89557619D01*
X141612904Y-89557619D02*
X141565285Y-89510000D01*
X141470047Y-89462380D01*
X141231952Y-89462380D01*
X141136714Y-89510000D01*
X141089095Y-89557619D01*
X141041476Y-89652857D01*
X141041476Y-89748095D01*
X141089095Y-89890952D01*
X141660523Y-90462380D01*
X141041476Y-90462380D01*
X140660523Y-89557619D02*
X140612904Y-89510000D01*
X140517666Y-89462380D01*
X140279571Y-89462380D01*
X140184333Y-89510000D01*
X140136714Y-89557619D01*
X140089095Y-89652857D01*
X140089095Y-89748095D01*
X140136714Y-89890952D01*
X140708142Y-90462380D01*
X140089095Y-90462380D01*
G04 #@! TO.C,C18*
X147837142Y-87636142D02*
X147884761Y-87588523D01*
X147932380Y-87445666D01*
X147932380Y-87350428D01*
X147884761Y-87207571D01*
X147789523Y-87112333D01*
X147694285Y-87064714D01*
X147503809Y-87017095D01*
X147360952Y-87017095D01*
X147170476Y-87064714D01*
X147075238Y-87112333D01*
X146980000Y-87207571D01*
X146932380Y-87350428D01*
X146932380Y-87445666D01*
X146980000Y-87588523D01*
X147027619Y-87636142D01*
X147932380Y-88588523D02*
X147932380Y-88017095D01*
X147932380Y-88302809D02*
X146932380Y-88302809D01*
X147075238Y-88207571D01*
X147170476Y-88112333D01*
X147218095Y-88017095D01*
X147360952Y-89159952D02*
X147313333Y-89064714D01*
X147265714Y-89017095D01*
X147170476Y-88969476D01*
X147122857Y-88969476D01*
X147027619Y-89017095D01*
X146980000Y-89064714D01*
X146932380Y-89159952D01*
X146932380Y-89350428D01*
X146980000Y-89445666D01*
X147027619Y-89493285D01*
X147122857Y-89540904D01*
X147170476Y-89540904D01*
X147265714Y-89493285D01*
X147313333Y-89445666D01*
X147360952Y-89350428D01*
X147360952Y-89159952D01*
X147408571Y-89064714D01*
X147456190Y-89017095D01*
X147551428Y-88969476D01*
X147741904Y-88969476D01*
X147837142Y-89017095D01*
X147884761Y-89064714D01*
X147932380Y-89159952D01*
X147932380Y-89350428D01*
X147884761Y-89445666D01*
X147837142Y-89493285D01*
X147741904Y-89540904D01*
X147551428Y-89540904D01*
X147456190Y-89493285D01*
X147408571Y-89445666D01*
X147360952Y-89350428D01*
G04 #@! TO.C,C17*
X130057142Y-85463142D02*
X130104761Y-85415523D01*
X130152380Y-85272666D01*
X130152380Y-85177428D01*
X130104761Y-85034571D01*
X130009523Y-84939333D01*
X129914285Y-84891714D01*
X129723809Y-84844095D01*
X129580952Y-84844095D01*
X129390476Y-84891714D01*
X129295238Y-84939333D01*
X129200000Y-85034571D01*
X129152380Y-85177428D01*
X129152380Y-85272666D01*
X129200000Y-85415523D01*
X129247619Y-85463142D01*
X130152380Y-86415523D02*
X130152380Y-85844095D01*
X130152380Y-86129809D02*
X129152380Y-86129809D01*
X129295238Y-86034571D01*
X129390476Y-85939333D01*
X129438095Y-85844095D01*
X129152380Y-86748857D02*
X129152380Y-87415523D01*
X130152380Y-86986952D01*
G04 #@! TO.C,C23*
X137167857Y-72620142D02*
X137215476Y-72667761D01*
X137358333Y-72715380D01*
X137453571Y-72715380D01*
X137596428Y-72667761D01*
X137691666Y-72572523D01*
X137739285Y-72477285D01*
X137786904Y-72286809D01*
X137786904Y-72143952D01*
X137739285Y-71953476D01*
X137691666Y-71858238D01*
X137596428Y-71763000D01*
X137453571Y-71715380D01*
X137358333Y-71715380D01*
X137215476Y-71763000D01*
X137167857Y-71810619D01*
X136786904Y-71810619D02*
X136739285Y-71763000D01*
X136644047Y-71715380D01*
X136405952Y-71715380D01*
X136310714Y-71763000D01*
X136263095Y-71810619D01*
X136215476Y-71905857D01*
X136215476Y-72001095D01*
X136263095Y-72143952D01*
X136834523Y-72715380D01*
X136215476Y-72715380D01*
X135882142Y-71715380D02*
X135263095Y-71715380D01*
X135596428Y-72096333D01*
X135453571Y-72096333D01*
X135358333Y-72143952D01*
X135310714Y-72191571D01*
X135263095Y-72286809D01*
X135263095Y-72524904D01*
X135310714Y-72620142D01*
X135358333Y-72667761D01*
X135453571Y-72715380D01*
X135739285Y-72715380D01*
X135834523Y-72667761D01*
X135882142Y-72620142D01*
G04 #@! TO.C,C33*
X144977142Y-75303142D02*
X145024761Y-75255523D01*
X145072380Y-75112666D01*
X145072380Y-75017428D01*
X145024761Y-74874571D01*
X144929523Y-74779333D01*
X144834285Y-74731714D01*
X144643809Y-74684095D01*
X144500952Y-74684095D01*
X144310476Y-74731714D01*
X144215238Y-74779333D01*
X144120000Y-74874571D01*
X144072380Y-75017428D01*
X144072380Y-75112666D01*
X144120000Y-75255523D01*
X144167619Y-75303142D01*
X144072380Y-75636476D02*
X144072380Y-76255523D01*
X144453333Y-75922190D01*
X144453333Y-76065047D01*
X144500952Y-76160285D01*
X144548571Y-76207904D01*
X144643809Y-76255523D01*
X144881904Y-76255523D01*
X144977142Y-76207904D01*
X145024761Y-76160285D01*
X145072380Y-76065047D01*
X145072380Y-75779333D01*
X145024761Y-75684095D01*
X144977142Y-75636476D01*
X144072380Y-76588857D02*
X144072380Y-77207904D01*
X144453333Y-76874571D01*
X144453333Y-77017428D01*
X144500952Y-77112666D01*
X144548571Y-77160285D01*
X144643809Y-77207904D01*
X144881904Y-77207904D01*
X144977142Y-77160285D01*
X145024761Y-77112666D01*
X145072380Y-77017428D01*
X145072380Y-76731714D01*
X145024761Y-76636476D01*
X144977142Y-76588857D01*
G04 #@! TO.C,C32*
X132183142Y-75557142D02*
X132230761Y-75509523D01*
X132278380Y-75366666D01*
X132278380Y-75271428D01*
X132230761Y-75128571D01*
X132135523Y-75033333D01*
X132040285Y-74985714D01*
X131849809Y-74938095D01*
X131706952Y-74938095D01*
X131516476Y-74985714D01*
X131421238Y-75033333D01*
X131326000Y-75128571D01*
X131278380Y-75271428D01*
X131278380Y-75366666D01*
X131326000Y-75509523D01*
X131373619Y-75557142D01*
X131278380Y-75890476D02*
X131278380Y-76509523D01*
X131659333Y-76176190D01*
X131659333Y-76319047D01*
X131706952Y-76414285D01*
X131754571Y-76461904D01*
X131849809Y-76509523D01*
X132087904Y-76509523D01*
X132183142Y-76461904D01*
X132230761Y-76414285D01*
X132278380Y-76319047D01*
X132278380Y-76033333D01*
X132230761Y-75938095D01*
X132183142Y-75890476D01*
X131373619Y-76890476D02*
X131326000Y-76938095D01*
X131278380Y-77033333D01*
X131278380Y-77271428D01*
X131326000Y-77366666D01*
X131373619Y-77414285D01*
X131468857Y-77461904D01*
X131564095Y-77461904D01*
X131706952Y-77414285D01*
X132278380Y-76842857D01*
X132278380Y-77461904D01*
G04 #@! TO.C,C31*
X127896857Y-92305142D02*
X127944476Y-92352761D01*
X128087333Y-92400380D01*
X128182571Y-92400380D01*
X128325428Y-92352761D01*
X128420666Y-92257523D01*
X128468285Y-92162285D01*
X128515904Y-91971809D01*
X128515904Y-91828952D01*
X128468285Y-91638476D01*
X128420666Y-91543238D01*
X128325428Y-91448000D01*
X128182571Y-91400380D01*
X128087333Y-91400380D01*
X127944476Y-91448000D01*
X127896857Y-91495619D01*
X127563523Y-91400380D02*
X126944476Y-91400380D01*
X127277809Y-91781333D01*
X127134952Y-91781333D01*
X127039714Y-91828952D01*
X126992095Y-91876571D01*
X126944476Y-91971809D01*
X126944476Y-92209904D01*
X126992095Y-92305142D01*
X127039714Y-92352761D01*
X127134952Y-92400380D01*
X127420666Y-92400380D01*
X127515904Y-92352761D01*
X127563523Y-92305142D01*
X125992095Y-92400380D02*
X126563523Y-92400380D01*
X126277809Y-92400380D02*
X126277809Y-91400380D01*
X126373047Y-91543238D01*
X126468285Y-91638476D01*
X126563523Y-91686095D01*
G04 #@! TO.C,C34*
X145422857Y-92653142D02*
X145470476Y-92700761D01*
X145613333Y-92748380D01*
X145708571Y-92748380D01*
X145851428Y-92700761D01*
X145946666Y-92605523D01*
X145994285Y-92510285D01*
X146041904Y-92319809D01*
X146041904Y-92176952D01*
X145994285Y-91986476D01*
X145946666Y-91891238D01*
X145851428Y-91796000D01*
X145708571Y-91748380D01*
X145613333Y-91748380D01*
X145470476Y-91796000D01*
X145422857Y-91843619D01*
X145089523Y-91748380D02*
X144470476Y-91748380D01*
X144803809Y-92129333D01*
X144660952Y-92129333D01*
X144565714Y-92176952D01*
X144518095Y-92224571D01*
X144470476Y-92319809D01*
X144470476Y-92557904D01*
X144518095Y-92653142D01*
X144565714Y-92700761D01*
X144660952Y-92748380D01*
X144946666Y-92748380D01*
X145041904Y-92700761D01*
X145089523Y-92653142D01*
X143613333Y-92081714D02*
X143613333Y-92748380D01*
X143851428Y-91700761D02*
X144089523Y-92415047D01*
X143470476Y-92415047D01*
G04 #@! TD*
M02*
